<svg width="40" height="40" viewBox="0 0 40 40" fill="none" xmlns="http://www.w3.org/2000/svg">
<circle cx="20" cy="20" r="20" fill="white"/>
<mask id="mask0_208_1860" style="mask-type:alpha" maskUnits="userSpaceOnUse" x="8" y="8" width="24" height="24">
<rect x="8" y="8" width="24" height="24" fill="#D9D9D9"/>
</mask>
<g mask="url(#mask0_208_1860)">
<path d="M13 29C12.4477 29.5523 11.5523 29.5523 11 29C10.4477 28.4477 10.4477 27.5523 11 27L16.5858 21.4142C17.3668 20.6332 17.3668 19.3668 16.5858 18.5858L11 13C10.4477 12.4477 10.4477 11.5523 11 11C11.5523 10.4477 12.4477 10.4477 13 11L18.5858 16.5858C19.3668 17.3668 20.6332 17.3668 21.4142 16.5858L27 11C27.5523 10.4477 28.4477 10.4477 29 11C29.5523 11.5523 29.5523 12.4477 29 13L23.4142 18.5858C22.6332 19.3668 22.6332 20.6332 23.4142 21.4142L29 27C29.5523 27.5523 29.5523 28.4477 29 29C28.4477 29.5523 27.5523 29.5523 27 29L21.4142 23.4142C20.6332 22.6332 19.3668 22.6332 18.5858 23.4142L13 29Z" fill="#1C1B1F"/>
</g>
</svg>
