<svg width="14" height="13" viewBox="0 0 14 13" fill="none" xmlns="http://www.w3.org/2000/svg">
<path d="M6.40559 0.829413C6.59268 0.253591 7.40732 0.253593 7.59441 0.829415L8.65579 4.096C8.73946 4.35351 8.97944 4.52786 9.2502 4.52786H12.6849C13.2903 4.52786 13.5421 5.30263 13.0523 5.6585L10.2735 7.67736C10.0545 7.83652 9.96282 8.11862 10.0465 8.37614L11.1079 11.6427C11.295 12.2185 10.6359 12.6974 10.1461 12.3415L7.36737 10.3226C7.14831 10.1635 6.85169 10.1635 6.63263 10.3226L3.85391 12.3415C3.36409 12.6974 2.70504 12.2185 2.89213 11.6427L3.95351 8.37614C4.03718 8.11862 3.94552 7.83652 3.72646 7.67736L0.94774 5.6585C0.457916 5.30263 0.709654 4.52786 1.31511 4.52786H4.7498C5.02057 4.52786 5.26054 4.35351 5.34421 4.096L6.40559 0.829413Z" fill="#D8D8D8"/>
</svg>
