<svg width="32" height="33" viewBox="0 0 32 33" fill="none" xmlns="http://www.w3.org/2000/svg">
<path fill-rule="evenodd" clip-rule="evenodd" d="M16 31.5C23.732 31.5 30 25.232 30 17.5C30 9.76801 23.732 3.5 16 3.5C8.26801 3.5 2 9.76801 2 17.5C2 20.0109 2.661 22.3674 3.81847 24.405L2 31.5L9.31486 29.8038C11.3014 30.8854 13.5789 31.5 16 31.5ZM16 29.3462C22.5425 29.3462 27.8462 24.0425 27.8462 17.5C27.8462 10.9576 22.5425 5.65385 16 5.65385C9.45755 5.65385 4.15385 10.9576 4.15385 17.5C4.15385 20.0261 4.9445 22.3675 6.29184 24.2902L5.23077 28.2692L9.27993 27.2569C11.1894 28.5746 13.5046 29.3462 16 29.3462Z" fill="#BFC8D0"/>
<path d="M28 16.5C28 23.1274 22.6274 28.5 16 28.5C13.4722 28.5 11.1269 27.7184 9.19266 26.3837L5.09091 27.4091L6.16576 23.3784C4.80092 21.4307 4 19.0589 4 16.5C4 9.87258 9.37258 4.5 16 4.5C22.6274 4.5 28 9.87258 28 16.5Z" fill="url(#paint0_linear_296_914)"/>
<path fill-rule="evenodd" clip-rule="evenodd" d="M16 30.5C23.732 30.5 30 24.232 30 16.5C30 8.76801 23.732 2.5 16 2.5C8.26801 2.5 2 8.76801 2 16.5C2 19.0109 2.661 21.3674 3.81847 23.405L2 30.5L9.31486 28.8038C11.3014 29.8854 13.5789 30.5 16 30.5ZM16 28.3462C22.5425 28.3462 27.8462 23.0425 27.8462 16.5C27.8462 9.95755 22.5425 4.65385 16 4.65385C9.45755 4.65385 4.15385 9.95755 4.15385 16.5C4.15385 19.0261 4.9445 21.3675 6.29184 23.2902L5.23077 27.2692L9.27993 26.2569C11.1894 27.5746 13.5046 28.3462 16 28.3462Z" fill="white"/>
<path d="M12.5 10.0004C12.1672 9.3318 11.6565 9.39099 11.1407 9.39099C10.2188 9.39099 8.78125 10.4953 8.78125 12.5504C8.78125 14.2348 9.52345 16.0785 12.0244 18.8366C14.438 21.4984 17.6094 22.8753 20.2422 22.8284C22.875 22.7816 23.4167 20.5159 23.4167 19.7508C23.4167 19.4117 23.2062 19.2425 23.0613 19.1965C22.1641 18.7659 20.5093 17.9636 20.1328 17.8129C19.7563 17.6622 19.5597 17.866 19.4375 17.977C19.0961 18.3023 18.4193 19.2613 18.1875 19.477C17.9558 19.6926 17.6103 19.5835 17.4665 19.5019C16.9374 19.2896 15.5029 18.6516 14.3595 17.5431C12.9453 16.1723 12.8623 15.7006 12.5959 15.2808C12.3828 14.9449 12.5392 14.7389 12.6172 14.6488C12.9219 14.2973 13.3426 13.7545 13.5313 13.4848C13.7199 13.215 13.5702 12.8055 13.4803 12.5504C13.0938 11.4535 12.7663 10.5352 12.5 10.0004Z" fill="white"/>
<defs>
<linearGradient id="paint0_linear_296_914" x1="26.5" y1="7.5" x2="4" y2="28.5" gradientUnits="userSpaceOnUse">
<stop stop-color="#5BD066"/>
<stop offset="1" stop-color="#27B43E"/>
</linearGradient>
</defs>
</svg>
