<svg width="238" height="44" viewBox="0 0 238 44" fill="none" xmlns="http://www.w3.org/2000/svg">
<path fill-rule="evenodd" clip-rule="evenodd" d="M26.2631 0.355533C22.9451 0.810516 19.7702 1.99219 17.061 3.78041C13.3501 6.22976 10.3254 10.0143 8.74703 14.1826C8.30967 15.3374 7.68754 17.5575 7.68754 17.963C7.68754 18.0818 7.28171 18.4813 6.60095 19.0323C5.14836 20.2084 3.20807 22.1783 2.2727 23.4267C1.36734 24.635 0.484227 26.3688 0.206162 27.4835C-0.300541 29.515 0.132881 31.3778 1.43911 32.782C3.24921 34.728 6.21605 35.778 10.7966 36.094L12.4887 36.2108L13.449 37.1905C15.3443 39.124 16.8078 40.2111 19.169 41.4388C22.4308 43.1349 25.8366 43.8935 29.6568 43.775C32.1604 43.6974 34.0295 43.3594 36.2602 42.5807C37.4617 42.1614 39.766 41.0106 40.9421 40.2424C43.9182 38.2986 46.6792 35.237 48.2618 32.1256C48.8722 30.9254 48.9643 30.4205 48.6471 30.0128C48.3864 29.6776 47.8545 29.4874 47.4407 29.5813C47.03 29.6744 46.917 29.8047 46.4384 30.737C43.9307 35.6227 39.7542 39.1411 34.5955 40.714C28.2919 42.6359 21.6646 41.2369 16.4537 36.8843C15.8717 36.398 15.6112 36.1199 15.6956 36.0746C15.7664 36.0365 16.2564 35.973 16.7845 35.9334C18.8835 35.7757 22.4639 35.1464 25.4262 34.4145C26.2042 34.2223 26.8464 34.0729 26.8534 34.0824C26.8604 34.0921 26.5561 34.7632 26.1773 35.5738C25.7985 36.3845 25.4592 37.1909 25.4234 37.3658C25.335 37.7971 25.5985 38.2829 26.0343 38.4918C26.5035 38.7168 27.0949 38.5448 27.4277 38.0864C27.5583 37.9065 28.247 36.5136 28.958 34.991C30.3587 31.9922 30.4072 31.803 29.8979 31.3311C29.5304 30.9906 24.0039 28.4584 23.6282 28.4584C22.8435 28.4584 22.3186 29.3702 22.6642 30.133C22.7769 30.3816 23.7636 30.9215 25.3948 31.6273C25.7269 31.7709 25.8531 31.8703 25.7641 31.918C25.5663 32.024 22.7995 32.682 21.3204 32.975C19.0315 33.4281 16.2084 33.7897 14.3652 33.8656L13.6138 33.8966L12.9313 32.8982C11.4585 30.7433 10.449 28.2965 9.90407 25.5614C9.55596 23.8141 9.51249 20.8026 9.80855 18.9411C10.4183 15.1075 12.0284 11.7226 14.6569 8.74843C16.4401 6.73078 19.2937 4.77291 22.0634 3.66687C23.0511 3.27247 24.8268 2.79654 26.1342 2.57596C27.3565 2.36962 30.0433 2.34644 31.4408 2.53002C34.7051 2.95888 38.1923 4.3962 40.7674 6.3742C41.668 7.06582 42.8377 8.1859 43.6577 9.1414C44.4782 10.0975 45.8959 12.196 46.3883 13.183C46.7325 13.873 47.0671 14.1258 47.6363 14.1258C48.1969 14.1258 48.7251 13.5778 48.7251 12.9961C48.7251 12.4267 47.0113 9.59893 45.6865 7.9824L44.9522 7.08636L46.5401 7.1568C47.4135 7.19542 48.2056 7.24117 48.3003 7.25835C48.3949 7.27553 48.7453 7.32228 49.0789 7.36233C51.4741 7.64939 53.6507 8.46096 54.6959 9.45682C54.9952 9.74195 55.5984 10.6087 55.5984 10.7535C55.5984 10.8074 55.7304 10.9936 55.8916 11.1672C56.1355 11.4297 56.2614 11.4829 56.639 11.4829C57.0007 11.4829 57.1571 11.4228 57.4071 11.188C57.8663 10.7566 57.8607 10.3355 57.3829 9.35324C56.9826 8.52998 55.8023 7.3111 54.8909 6.77968C53.607 6.03103 51.7113 5.42601 49.6854 5.11832C48.9412 5.00539 47.5524 4.92885 45.4862 4.88717L42.3989 4.82486L41.999 4.50669C41.3919 4.02355 39.7749 3.02078 38.8434 2.54984C36.7007 1.46636 34.3955 0.760911 31.6689 0.354211C30.4026 0.165346 27.6451 0.166058 26.2631 0.355533ZM35.7368 14.4886C34.2654 14.7656 33.1584 15.522 33.1595 16.2501C33.16 16.6105 33.4782 17.11 34.17 17.836C35.3702 19.0955 38.3131 22.3105 38.3106 22.3594C38.3092 22.3873 37.6157 22.8281 36.7696 23.3388L35.2312 24.2675L31.2892 24.3829C26.3658 24.5273 26.1687 24.544 25.8461 24.8447C25.303 25.3508 25.3272 26.2756 25.8931 26.6414C26.5268 27.0509 35.0744 30.898 35.3507 30.898C35.5944 30.898 37.4274 30.1361 38.4804 29.5972C38.5835 29.5445 38.8953 29.3982 39.1733 29.2722C42.9328 27.5679 43.9396 27.105 44.025 27.0413C44.0806 26.9997 44.308 26.8945 44.5304 26.8074C44.7528 26.7202 45.3213 26.4669 45.7939 26.2446C46.2664 26.0223 47.3353 25.5322 48.1692 25.1554C49.0031 24.7787 49.7991 24.414 49.938 24.3451C50.077 24.2763 50.3499 24.1478 50.5445 24.0597C50.7391 23.9716 51.2865 23.7131 51.761 23.4852C52.2354 23.2574 52.6526 23.0709 52.6879 23.0709C52.7231 23.0709 53.2673 22.8267 53.8973 22.528C54.5271 22.2295 55.2472 21.8978 55.4973 21.7911C56.6425 21.3024 59.1342 19.9948 59.5859 19.6454C61.1736 18.4171 60.9322 16.2509 59.1072 15.3494C58.3028 14.952 57.216 14.7257 56.0027 14.703C54.5321 14.6753 54.3584 14.7181 52.6671 15.5249C50.7063 16.4603 49.8314 16.8703 49.7961 16.8703C49.7756 16.8703 49.3329 17.0696 48.8124 17.313C48.2919 17.5566 47.5414 17.904 47.1448 18.085L46.4236 18.4144L45.7297 17.9077C44.142 16.7482 41.6905 15.4224 40.2346 14.9358C38.7215 14.4302 36.9714 14.2562 35.7368 14.4886ZM38.87 17.0057C40.6673 17.5203 42.6808 18.607 44.6315 20.1152C45.8943 21.0916 46.0681 21.1233 47.1808 20.5805C47.5819 20.3849 47.9305 20.2248 47.9556 20.2248C47.9807 20.2248 48.4333 20.0189 48.9615 19.7673C49.4898 19.5158 49.9432 19.3099 49.9692 19.3099C49.9952 19.3099 50.4997 19.0812 51.0905 18.8017C51.6813 18.5221 52.1846 18.2934 52.2089 18.2934C52.2331 18.2934 52.6758 18.091 53.1929 17.8436C54.8559 17.0479 55.0499 16.9917 56.0027 17.0293C56.934 17.0661 58.1711 17.3921 58.2597 17.624C58.3527 17.8679 57.9547 18.1242 56.2788 18.8998C55.7913 19.1253 55.3732 19.3099 55.3498 19.3099C55.3142 19.3099 54.0109 19.9141 52.8188 20.4831C52.652 20.5627 51.8105 20.9448 50.9488 21.3321C50.0871 21.7194 49.2457 22.1087 49.0789 22.1973C48.9121 22.2857 48.7446 22.3584 48.7067 22.3588C48.6688 22.3591 48.1457 22.5924 47.5443 22.8771C46.1484 23.5379 45.6504 23.768 44.5304 24.2695C44.0301 24.4935 43.22 24.8644 42.7303 25.0937C42.2406 25.323 41.8249 25.5105 41.8066 25.5105C41.7884 25.5105 41.2901 25.7392 40.6993 26.0188C40.1085 26.2983 39.6075 26.527 39.586 26.527C39.5644 26.527 39.1672 26.7059 38.7031 26.9245C38.239 27.1431 37.2914 27.5795 36.5973 27.8943L35.3352 28.4666L33.4442 27.6265C32.3118 27.1233 31.6015 26.7552 31.6738 26.709C31.7402 26.6665 32.3859 26.6286 33.1086 26.6247C35.7543 26.6106 35.6178 26.6526 38.213 25.0538C39.4639 24.2832 40.5902 23.5591 40.7158 23.4447C41.0031 23.1833 41.1783 22.5642 41.0563 22.2417C41.0066 22.1102 40.5144 21.5224 39.9625 20.9357C36.4871 17.241 36.1099 16.8176 36.2498 16.767C36.4863 16.6818 38.3227 16.8491 38.87 17.0057ZM7.54057 25.1548C7.93609 27.9351 8.95374 30.8413 10.3284 33.1169C10.5437 33.4732 10.7199 33.7899 10.7199 33.8204C10.7199 33.9042 9.14841 33.7653 8.18393 33.5961C5.44795 33.1164 3.4548 32.0867 2.68833 30.7574C1.81684 29.2457 2.42664 26.9183 4.32235 24.5214C4.57737 24.1988 5.33657 23.3737 6.00944 22.6876L7.23269 21.4404L7.30708 22.7384C7.34801 23.4524 7.45314 24.5398 7.54057 25.1548Z" fill="#FFC106"/>
<path d="M81.0796 14.1859V17.3697H76.7571V30.5H72.7831V17.3697H68.4606V14.1859H81.0796ZM91.3938 30.5L88.0008 24.3415H87.048V30.5H83.074V14.1859H89.7438C91.0297 14.1859 92.1219 14.4105 93.0205 14.8598C93.9346 15.3091 94.6163 15.9288 95.0656 16.719C95.5149 17.4936 95.7395 18.3612 95.7395 19.3218C95.7395 20.4063 95.4297 21.3746 94.81 22.2267C94.2057 23.0789 93.3071 23.6831 92.1142 24.0394L95.879 30.5H91.3938ZM87.048 21.5296H89.5114C90.2395 21.5296 90.7818 21.3514 91.1381 20.9951C91.51 20.6387 91.6959 20.1352 91.6959 19.4845C91.6959 18.8648 91.51 18.3767 91.1381 18.0204C90.7818 17.6641 90.2395 17.4859 89.5114 17.4859H87.048V21.5296ZM108.39 27.6183H102.301L101.325 30.5H97.1651L103.068 14.1859H107.669L113.572 30.5H109.366L108.39 27.6183ZM107.367 24.5507L105.345 18.5781L103.347 24.5507H107.367ZM130.684 14.1859L124.897 30.5H119.924L114.137 14.1859H118.367L122.41 26.5028L126.477 14.1859H130.684ZM136.318 17.3697V20.6697H141.64V23.7373H136.318V27.3162H142.337V30.5H132.344V14.1859H142.337V17.3697H136.318ZM148.891 27.4324H154.097V30.5H144.917V14.1859H148.891V27.4324ZM169.237 30.5L165.844 24.3415H164.891V30.5H160.917V14.1859H167.587C168.873 14.1859 169.965 14.4105 170.864 14.8598C171.778 15.3091 172.459 15.9288 172.909 16.719C173.358 17.4936 173.583 18.3612 173.583 19.3218C173.583 20.4063 173.273 21.3746 172.653 22.2267C172.049 23.0789 171.15 23.6831 169.957 24.0394L173.722 30.5H169.237ZM164.891 21.5296H167.355C168.083 21.5296 168.625 21.3514 168.981 20.9951C169.353 20.6387 169.539 20.1352 169.539 19.4845C169.539 18.8648 169.353 18.3767 168.981 18.0204C168.625 17.6641 168.083 17.4859 167.355 17.4859H164.891V21.5296ZM183.793 30.6627C182.259 30.6627 180.849 30.3063 179.563 29.5937C178.293 28.881 177.278 27.8894 176.519 26.619C175.775 25.3331 175.403 23.8922 175.403 22.2965C175.403 20.7007 175.775 19.2676 176.519 17.9972C177.278 16.7267 178.293 15.7352 179.563 15.0225C180.849 14.3098 182.259 13.9535 183.793 13.9535C185.327 13.9535 186.729 14.3098 187.999 15.0225C189.285 15.7352 190.292 16.7267 191.02 17.9972C191.764 19.2676 192.136 20.7007 192.136 22.2965C192.136 23.8922 191.764 25.3331 191.02 26.619C190.277 27.8894 189.27 28.881 187.999 29.5937C186.729 30.3063 185.327 30.6627 183.793 30.6627ZM183.793 27.0373C185.094 27.0373 186.132 26.6035 186.907 25.7359C187.697 24.8683 188.092 23.7218 188.092 22.2965C188.092 20.8556 187.697 19.7091 186.907 18.857C186.132 17.9894 185.094 17.5556 183.793 17.5556C182.476 17.5556 181.422 17.9817 180.632 18.8338C179.858 19.6859 179.47 20.8401 179.47 22.2965C179.47 23.7373 179.858 24.8915 180.632 25.7591C181.422 26.6113 182.476 27.0373 183.793 27.0373ZM209.661 14.1859L203.875 30.5H198.902L193.115 14.1859H197.345L201.388 26.5028L205.455 14.1859H209.661ZM215.296 17.3697V20.6697H220.618V23.7373H215.296V27.3162H221.315V30.5H211.322V14.1859H221.315V17.3697H215.296ZM232.215 30.5L228.822 24.3415H227.869V30.5H223.895V14.1859H230.565C231.851 14.1859 232.943 14.4105 233.842 14.8598C234.756 15.3091 235.438 15.9288 235.887 16.719C236.336 17.4936 236.561 18.3612 236.561 19.3218C236.561 20.4063 236.251 21.3746 235.631 22.2267C235.027 23.0789 234.128 23.6831 232.935 24.0394L236.7 30.5H232.215ZM227.869 21.5296H230.333C231.061 21.5296 231.603 21.3514 231.959 20.9951C232.331 20.6387 232.517 20.1352 232.517 19.4845C232.517 18.8648 232.331 18.3767 231.959 18.0204C231.603 17.6641 231.061 17.4859 230.333 17.4859H227.869V21.5296Z" fill="#FFC106"/>
</svg>
