<svg width="48" height="48" viewBox="0 0 48 48" fill="none" xmlns="http://www.w3.org/2000/svg">
<mask id="mask0_50_171" style="mask-type:alpha" maskUnits="userSpaceOnUse" x="7" y="7" width="34" height="34">
<rect x="7" y="23.9706" width="24" height="24" transform="rotate(-45 7 23.9706)" fill="#D9D9D9"/>
</mask>
<g mask="url(#mask0_50_171)">
<path d="M26.799 28.2132L23.9706 31.0416C22.9925 32.0198 21.8139 32.5086 20.4351 32.5081C19.0562 32.5086 17.8777 32.0198 16.8995 31.0416C15.9214 30.0634 15.4323 28.8847 15.4323 27.5054C15.4323 26.127 15.9214 24.9487 16.8995 23.9705L19.728 21.1421L21.1422 22.5563L18.3138 25.3848C17.7245 25.974 17.4299 26.6811 17.4299 27.5061C17.4299 28.331 17.7245 29.0381 18.3138 29.6274C18.903 30.2166 19.6101 30.5113 20.4351 30.5113C21.26 30.5113 21.9671 30.2166 22.5564 29.6274L25.3848 26.799L26.799 28.2132ZM21.8493 27.5061L20.4351 26.0919L26.0919 20.435L27.5061 21.8492L21.8493 27.5061ZM28.2133 26.799L26.799 25.3848L29.6275 22.5563C30.2167 21.9671 30.5114 21.26 30.5114 20.435C30.5114 19.61 30.2167 18.9029 29.6275 18.3137C29.0382 17.7244 28.3311 17.4298 27.5061 17.4298C26.6812 17.4298 25.9741 17.7244 25.3848 18.3137L22.5564 21.1421L21.1422 19.7279L23.9706 16.8995C24.9488 15.9213 26.1273 15.432 27.5061 15.4315C28.885 15.432 30.0635 15.9213 31.0417 16.8995C32.0198 17.8776 32.5089 19.0559 32.5089 20.4343C32.5089 21.8136 32.0198 22.9924 31.0417 23.9705L28.2133 26.799Z" fill="#343E59"/>
</g>
<circle cx="24" cy="24" r="24" fill="#9D9D9D" fill-opacity="0.1"/>
</svg>
