<svg width="48" height="48" viewBox="0 0 48 48" fill="none" xmlns="http://www.w3.org/2000/svg">
<rect width="48" height="48" rx="24" fill="#9D9D9D" fill-opacity="0.1"/>
<path d="M34.9912 15.9502C34.9913 15.7736 34.9446 15.6001 34.8558 15.4474C34.7671 15.2946 34.6394 15.1682 34.4859 15.0808C34.3324 14.9935 34.1584 14.9484 33.9818 14.9502C33.8052 14.9519 33.6322 15.0005 33.4804 15.0908C32.8951 15.4392 32.265 15.706 31.6074 15.8838C30.6684 15.0781 29.4708 14.6371 28.2334 14.6416C26.876 14.6432 25.5723 15.1722 24.5976 16.117C23.623 17.0618 23.0536 18.3484 23.0098 19.7051C20.3338 19.2784 17.9084 17.8816 16.1962 15.7813C16.0931 15.6561 15.9613 15.5576 15.8121 15.494C15.6629 15.4304 15.5006 15.4037 15.3388 15.416C15.1772 15.4293 15.0212 15.4818 14.8844 15.5689C14.7476 15.656 14.6341 15.7752 14.5537 15.916C14.1412 16.6358 13.9043 17.4428 13.8622 18.2713C13.8201 19.0999 13.9741 19.9267 14.3115 20.6846L14.3095 20.6865C14.1579 20.7799 14.0327 20.9107 13.946 21.0663C13.8593 21.2218 13.814 21.3971 13.8144 21.5752C13.8126 21.7221 13.8214 21.869 13.8408 22.0146C13.9429 23.2729 14.5006 24.4507 15.4091 25.3271C15.3475 25.4446 15.3099 25.5731 15.2985 25.7052C15.2871 25.8373 15.3021 25.9704 15.3427 26.0967C15.7388 27.3308 16.5812 28.3727 17.705 29.0185C16.5633 29.46 15.3305 29.614 14.1152 29.4668C13.8903 29.4386 13.6624 29.4876 13.469 29.6059C13.2757 29.7242 13.1282 29.9047 13.0509 30.1178C12.9736 30.3309 12.971 30.5639 13.0435 30.7787C13.1161 30.9935 13.2595 31.1772 13.4502 31.2998C15.5403 32.646 17.9739 33.3617 20.46 33.3613C23.2792 33.393 26.0299 32.4921 28.2842 30.7988C30.5385 29.1054 32.1699 26.7145 32.9248 23.998C33.2778 22.8146 33.4581 21.5865 33.46 20.3516C33.46 20.2861 33.46 20.2188 33.459 20.1514C33.9811 19.5883 34.3855 18.9267 34.6486 18.2053C34.9117 17.4839 35.0282 16.7172 34.9912 15.9502ZM31.6845 19.1621C31.5194 19.3575 31.4358 19.6089 31.4511 19.8643C31.4609 20.0293 31.4599 20.1953 31.4599 20.3516C31.4579 21.3951 31.3049 22.4329 31.0058 23.4326C30.3893 25.744 29.015 27.7817 27.1029 29.2192C25.1908 30.6568 22.8516 31.4111 20.46 31.3613C19.6008 31.3616 18.7447 31.2606 17.9092 31.0606C18.9746 30.7172 19.9708 30.1879 20.8516 29.4971C21.0138 29.3693 21.1325 29.1945 21.1914 28.9967C21.2504 28.7988 21.2466 28.5875 21.1807 28.3918C21.1148 28.1961 20.99 28.0257 20.8233 27.9038C20.6567 27.7819 20.4564 27.7145 20.25 27.7109C19.4188 27.698 18.6251 27.363 18.0361 26.7764C18.1855 26.7481 18.3339 26.7129 18.4814 26.6709C18.6974 26.6094 18.8865 26.477 19.0181 26.295C19.1497 26.1131 19.2162 25.8921 19.207 25.6677C19.1977 25.4433 19.1132 25.2285 18.9671 25.058C18.821 24.8874 18.6217 24.7711 18.4013 24.7275C17.9189 24.6323 17.4649 24.427 17.0746 24.1277C16.6844 23.8284 16.3685 23.4432 16.1513 23.002C16.3321 23.0266 16.5139 23.0419 16.6962 23.0479C16.9128 23.0511 17.1248 22.9854 17.3016 22.8603C17.4784 22.7351 17.6108 22.5569 17.6796 22.3516C17.7456 22.1443 17.7422 21.9212 17.67 21.7161C17.5977 21.511 17.4606 21.335 17.2793 21.2148C16.8394 20.9218 16.4791 20.5243 16.2306 20.0578C15.9821 19.5913 15.8532 19.0705 15.8554 18.542C15.8554 18.4756 15.8574 18.4092 15.8613 18.3438C18.1026 20.434 21.0096 21.6662 24.0703 21.8233C24.2248 21.8293 24.3786 21.8002 24.5202 21.7382C24.6618 21.6761 24.7875 21.5826 24.8877 21.4649C24.9869 21.346 25.0571 21.2057 25.0928 21.055C25.1286 20.9044 25.1289 20.7475 25.0937 20.5967C25.0365 20.3581 25.0073 20.1136 25.0068 19.8682C25.0077 19.0127 25.3479 18.1925 25.9528 17.5876C26.5577 16.9827 27.3779 16.6425 28.2334 16.6416C28.6735 16.6404 29.1091 16.7305 29.5127 16.9062C29.9162 17.0818 30.279 17.3392 30.5781 17.6621C30.6934 17.7862 30.8386 17.8787 30.9998 17.9309C31.161 17.983 31.3328 17.993 31.499 17.96C31.9097 17.8801 32.3146 17.7724 32.7109 17.6377C32.4406 18.1907 32.0952 18.7037 31.6845 19.1621Z" fill="#343E59"/>
</svg>
