<svg width="48" height="48" viewBox="0 0 48 48" fill="none" xmlns="http://www.w3.org/2000/svg">
<rect width="48" height="48" rx="24" fill="#9D9D9D" fill-opacity="0.1"/>
<path d="M28.6 26C28.4 25.9 27.1 25.3 26.9 25.2C26.7 25.1 26.5 25.1 26.3 25.3C26.1 25.5 25.7 26.1 25.5 26.3C25.4 26.5 25.2 26.5 25 26.4C24.3 26.1 23.6 25.7 23 25.2C22.5 24.7 22 24.1 21.6 23.5C21.5 23.3 21.6 23.1 21.7 23C21.8 22.9 21.9 22.7 22.1 22.6C22.2 22.5 22.3 22.3 22.3 22.2C22.4 22.1 22.4 21.9 22.3 21.8C22.2 21.7 21.7 20.5 21.5 20C21.4 19.3 21.2 19.3 21 19.3C20.9 19.3 20.7 19.3 20.5 19.3C20.3 19.3 20 19.5 19.9 19.6C19.3 20.2 19 20.9 19 21.7C19.1 22.6 19.4 23.5 20 24.3C21.1 25.9 22.5 27.2 24.2 28C24.7 28.2 25.1 28.4 25.6 28.5C26.1 28.7 26.6 28.7 27.2 28.6C27.9 28.5 28.5 28 28.9 27.4C29.1 27 29.1 26.6 29 26.2C29 26.2 28.8 26.1 28.6 26ZM31.1 16.9C27.2 13 20.9 13 17 16.9C13.8 20.1 13.2 25 15.4 28.9L14 34L19.3 32.6C20.8 33.4 22.4 33.8 24 33.8C29.5 33.8 33.9 29.4 33.9 23.9C34 21.3 32.9 18.8 31.1 16.9ZM28.4 30.9C27.1 31.7 25.6 32.2 24 32.2C22.5 32.2 21.1 31.8 19.8 31.1L19.5 30.9L16.4 31.7L17.2 28.7L17 28.4C14.6 24.4 15.8 19.4 19.7 16.9C23.6 14.4 28.6 15.7 31 19.5C33.4 23.4 32.3 28.5 28.4 30.9Z" fill="#343E59"/>
</svg>
