<svg width="67" height="19" viewBox="0 0 67 19" fill="none" xmlns="http://www.w3.org/2000/svg">
<path d="M6.21509 13.2021L4.22309 9.78215H2.90309V13.2021H1.81109V4.83815H4.51109C5.14309 4.83815 5.67509 4.94615 6.10709 5.16215C6.54709 5.37815 6.87509 5.67015 7.09109 6.03815C7.30709 6.40615 7.41509 6.82615 7.41509 7.29815C7.41509 7.87415 7.24709 8.38215 6.91109 8.82215C6.58309 9.26215 6.08709 9.55415 5.42309 9.69815L7.52309 13.2021H6.21509ZM2.90309 8.90615H4.51109C5.10309 8.90615 5.54709 8.76215 5.84309 8.47415C6.13909 8.17815 6.28709 7.78615 6.28709 7.29815C6.28709 6.80215 6.13909 6.41815 5.84309 6.14615C5.55509 5.87415 5.11109 5.73815 4.51109 5.73815H2.90309V8.90615ZM15.1119 9.66215C15.1119 9.87015 15.0999 10.0901 15.0759 10.3221H9.81987C9.85987 10.9701 10.0799 11.4781 10.4799 11.8461C10.8879 12.2061 11.3799 12.3861 11.9559 12.3861C12.4279 12.3861 12.8199 12.2781 13.1319 12.0621C13.4519 11.8381 13.6759 11.5421 13.8039 11.1741H14.9799C14.8039 11.8061 14.4519 12.3221 13.9239 12.7221C13.3959 13.1141 12.7399 13.3101 11.9559 13.3101C11.3319 13.3101 10.7719 13.1701 10.2759 12.8901C9.78787 12.6101 9.40387 12.2141 9.12387 11.7021C8.84387 11.1821 8.70387 10.5821 8.70387 9.90215C8.70387 9.22215 8.83987 8.62615 9.11187 8.11415C9.38387 7.60215 9.76387 7.21015 10.2519 6.93815C10.7479 6.65815 11.3159 6.51815 11.9559 6.51815C12.5799 6.51815 13.1319 6.65415 13.6119 6.92615C14.0919 7.19815 14.4599 7.57415 14.7159 8.05415C14.9799 8.52615 15.1119 9.06215 15.1119 9.66215ZM13.9839 9.43415C13.9839 9.01815 13.8919 8.66215 13.7079 8.36615C13.5239 8.06215 13.2719 7.83415 12.9519 7.68215C12.6399 7.52215 12.2919 7.44215 11.9079 7.44215C11.3559 7.44215 10.8839 7.61815 10.4919 7.97015C10.1079 8.32215 9.88787 8.81015 9.83187 9.43415H13.9839ZM24.4613 6.50615C24.9733 6.50615 25.4293 6.61415 25.8293 6.83015C26.2293 7.03815 26.5453 7.35415 26.7773 7.77815C27.0093 8.20215 27.1253 8.71815 27.1253 9.32615V13.2021H26.0453V9.48215C26.0453 8.82615 25.8813 8.32615 25.5533 7.98215C25.2333 7.63015 24.7973 7.45415 24.2453 7.45415C23.6773 7.45415 23.2253 7.63815 22.8893 8.00615C22.5533 8.36615 22.3853 8.89015 22.3853 9.57815V13.2021H21.3053V9.48215C21.3053 8.82615 21.1413 8.32615 20.8133 7.98215C20.4933 7.63015 20.0573 7.45415 19.5053 7.45415C18.9373 7.45415 18.4853 7.63815 18.1493 8.00615C17.8133 8.36615 17.6453 8.89015 17.6453 9.57815V13.2021H16.5533V6.62615H17.6453V7.57415C17.8613 7.23015 18.1493 6.96615 18.5093 6.78215C18.8773 6.59815 19.2813 6.50615 19.7213 6.50615C20.2733 6.50615 20.7613 6.63015 21.1853 6.87815C21.6093 7.12615 21.9253 7.49015 22.1333 7.97015C22.3173 7.50615 22.6213 7.14615 23.0453 6.89015C23.4693 6.63415 23.9413 6.50615 24.4613 6.50615ZM31.7846 13.3101C31.1686 13.3101 30.6086 13.1701 30.1046 12.8901C29.6086 12.6101 29.2166 12.2141 28.9286 11.7021C28.6486 11.1821 28.5086 10.5821 28.5086 9.90215C28.5086 9.23015 28.6526 8.63815 28.9406 8.12615C29.2366 7.60615 29.6366 7.21015 30.1406 6.93815C30.6446 6.65815 31.2086 6.51815 31.8326 6.51815C32.4566 6.51815 33.0206 6.65815 33.5246 6.93815C34.0286 7.21015 34.4246 7.60215 34.7126 8.11415C35.0086 8.62615 35.1566 9.22215 35.1566 9.90215C35.1566 10.5821 35.0046 11.1821 34.7006 11.7021C34.4046 12.2141 34.0006 12.6101 33.4886 12.8901C32.9766 13.1701 32.4086 13.3101 31.7846 13.3101ZM31.7846 12.3501C32.1766 12.3501 32.5446 12.2581 32.8886 12.0741C33.2326 11.8901 33.5086 11.6141 33.7166 11.2461C33.9326 10.8781 34.0406 10.4301 34.0406 9.90215C34.0406 9.37415 33.9366 8.92615 33.7286 8.55815C33.5206 8.19015 33.2486 7.91815 32.9126 7.74215C32.5766 7.55815 32.2126 7.46615 31.8206 7.46615C31.4206 7.46615 31.0526 7.55815 30.7166 7.74215C30.3886 7.91815 30.1246 8.19015 29.9246 8.55815C29.7246 8.92615 29.6246 9.37415 29.6246 9.90215C29.6246 10.4381 29.7206 10.8901 29.9126 11.2581C30.1126 11.6261 30.3766 11.9021 30.7046 12.0861C31.0326 12.2621 31.3926 12.3501 31.7846 12.3501ZM39.0403 12.1941L41.0803 6.62615H42.2443L39.6643 13.2021H38.3923L35.8123 6.62615H36.9883L39.0403 12.1941ZM49.3189 9.66215C49.3189 9.87015 49.3069 10.0901 49.2829 10.3221H44.0269C44.0669 10.9701 44.2869 11.4781 44.6869 11.8461C45.0949 12.2061 45.5869 12.3861 46.1629 12.3861C46.6349 12.3861 47.0269 12.2781 47.3389 12.0621C47.6589 11.8381 47.8829 11.5421 48.0109 11.1741H49.1869C49.0109 11.8061 48.6589 12.3221 48.1309 12.7221C47.6029 13.1141 46.9469 13.3101 46.1629 13.3101C45.5389 13.3101 44.9789 13.1701 44.4829 12.8901C43.9949 12.6101 43.6109 12.2141 43.3309 11.7021C43.0509 11.1821 42.9109 10.5821 42.9109 9.90215C42.9109 9.22215 43.0469 8.62615 43.3189 8.11415C43.5909 7.60215 43.9709 7.21015 44.4589 6.93815C44.9549 6.65815 45.5229 6.51815 46.1629 6.51815C46.7869 6.51815 47.3389 6.65415 47.8189 6.92615C48.2989 7.19815 48.6669 7.57415 48.9229 8.05415C49.1869 8.52615 49.3189 9.06215 49.3189 9.66215ZM48.1909 9.43415C48.1909 9.01815 48.0989 8.66215 47.9149 8.36615C47.7309 8.06215 47.4789 7.83415 47.1589 7.68215C46.8469 7.52215 46.4989 7.44215 46.1149 7.44215C45.5629 7.44215 45.0909 7.61815 44.6989 7.97015C44.3149 8.32215 44.0949 8.81015 44.0389 9.43415H48.1909Z" fill="#262626"/>
<mask id="mask0_230_42" style="mask-type:alpha" maskUnits="userSpaceOnUse" x="51" y="1" width="17" height="17">
<rect x="51.8871" y="1.20215" width="16" height="16" fill="#D9D9D9"/>
</mask>
<g mask="url(#mask0_230_42)">
<path d="M56.1537 13.869L55.2204 12.9356L58.9537 9.20231L55.2204 5.46898L56.1537 4.53564L59.8871 8.26898L63.6204 4.53564L64.5537 5.46898L60.8204 9.20231L64.5537 12.9356L63.6204 13.869L59.8871 10.1356L56.1537 13.869Z" fill="#1C1B1F"/>
</g>
</svg>
