<svg width="26" height="26" viewBox="0 0 26 26" fill="none" xmlns="http://www.w3.org/2000/svg">
<g id="Frame">
<g id="home location">
<path id="Vector" opacity="0.4" d="M14.2188 16.4531C14.2188 17.4575 13.9209 18.4393 13.3629 19.2744C12.8049 20.1095 12.0118 20.7604 11.0839 21.1447C10.156 21.5291 9.13499 21.6296 8.14993 21.4337C7.16487 21.2377 6.26004 20.7541 5.54985 20.0439C4.83966 19.3337 4.35602 18.4289 4.16008 17.4438C3.96414 16.4588 4.0647 15.4377 4.44905 14.5098C4.8334 13.5819 5.48428 12.7888 6.31937 12.2308C7.15447 11.6728 8.13627 11.375 9.14063 11.375C9.6219 11.3738 10.1008 11.4423 10.5625 11.5781V13.8125H11.7813V12.1875C11.7791 12.1645 11.7791 12.1414 11.7813 12.1185C12.5251 12.5713 13.1401 13.2079 13.5669 13.967C13.9938 14.7261 14.2183 15.5822 14.2188 16.4531Z" fill="#00D8C3"/>
<g id="Group">
<path id="Vector_2" d="M13 24.375C12.911 24.3742 12.8244 24.3458 12.7522 24.2937C12.3987 24.0216 4.0625 17.5906 4.0625 10.5625C4.0625 8.19213 5.00413 5.91884 6.68023 4.24273C8.35634 2.56663 10.6296 1.625 13 1.625C15.3704 1.625 17.6437 2.56663 19.3198 4.24273C20.9959 5.91884 21.9375 8.19213 21.9375 10.5625C21.9375 17.5906 13.6013 24.0216 13.2478 24.2937C13.1756 24.3458 13.089 24.3742 13 24.375ZM13 2.4375C10.8451 2.4375 8.77849 3.29352 7.25476 4.81726C5.73102 6.34099 4.875 8.40762 4.875 10.5625C4.875 16.5384 11.6147 22.3438 13 23.4487C14.3853 22.3438 21.125 16.5344 21.125 10.5625C21.125 8.40762 20.269 6.34099 18.7452 4.81726C17.2215 3.29352 15.1549 2.4375 13 2.4375Z" fill="#1B163F"/>
<path id="Vector_3" d="M17.7247 9.84344L13.2559 6.18719C13.1835 6.12848 13.0932 6.09644 13 6.09644C12.9068 6.09644 12.8164 6.12848 12.744 6.18719L8.27529 9.84344C8.21034 9.89643 8.16337 9.96821 8.14083 10.0489C8.11828 10.1297 8.12126 10.2154 8.14935 10.2944C8.17774 10.3729 8.22963 10.4408 8.29796 10.4887C8.36629 10.5367 8.44774 10.5625 8.53123 10.5625H9.74998V14.2188C9.74998 14.3265 9.79278 14.4298 9.86896 14.506C9.94515 14.5822 10.0485 14.625 10.1562 14.625H12.1875C12.2952 14.625 12.3986 14.5822 12.4747 14.506C12.5509 14.4298 12.5937 14.3265 12.5937 14.2188V12.1875C12.5937 12.0798 12.6365 11.9764 12.7127 11.9002C12.7889 11.8241 12.8922 11.7813 13 11.7813C13.054 11.782 13.1074 11.7935 13.1569 11.8152C13.2064 11.8368 13.2511 11.8681 13.2884 11.9072C13.3264 11.9432 13.3565 11.9867 13.3768 12.035C13.397 12.0832 13.4071 12.1352 13.4062 12.1875V14.2188C13.4062 14.3265 13.449 14.4298 13.5252 14.506C13.6014 14.5822 13.7047 14.625 13.8125 14.625H15.8437C15.9515 14.625 16.0548 14.5822 16.131 14.506C16.2072 14.4298 16.25 14.3265 16.25 14.2188V10.5625H17.4687C17.5522 10.5625 17.6337 10.5367 17.702 10.4887C17.7703 10.4408 17.8222 10.3729 17.8506 10.2944C17.8787 10.2154 17.8817 10.1297 17.8591 10.0489C17.8366 9.96821 17.7896 9.89643 17.7247 9.84344ZM15.8437 9.75001C15.736 9.75001 15.6327 9.79281 15.5565 9.86899C15.4803 9.94518 15.4375 10.0485 15.4375 10.1563V13.8125H14.2187V12.1875C14.2187 11.8643 14.0903 11.5543 13.8618 11.3257C13.6332 11.0972 13.3232 10.9688 13 10.9688C12.6767 10.9688 12.3668 11.0972 12.1382 11.3257C11.9096 11.5543 11.7812 11.8643 11.7812 12.1875V13.8125H10.5625V10.1563C10.5625 10.0485 10.5197 9.94518 10.4435 9.86899C10.3673 9.79281 10.264 9.75001 10.1562 9.75001H9.66873L13 7.02407L16.3312 9.75001H15.8437Z" fill="#1B163F"/>
<path id="Vector_4" opacity="0.4" d="M16.3312 9.75011H15.8437C15.736 9.75011 15.6326 9.79291 15.5564 9.86909C15.4803 9.94528 15.4375 10.0486 15.4375 10.1564V13.8126H14.2187V12.1876C14.2187 11.8644 14.0903 11.5544 13.8617 11.3258C13.6332 11.0973 13.3232 10.9689 13 10.9689C12.6883 10.9684 12.3884 11.0872 12.1617 11.3011C11.935 11.5149 11.7989 11.8074 11.7812 12.1185C11.779 12.1415 11.779 12.1646 11.7812 12.1876V13.8126H10.5625V10.1564C10.5625 10.0486 10.5197 9.94528 10.4435 9.86909C10.3673 9.79291 10.2639 9.75011 10.1562 9.75011H9.6687L13 7.02417L16.3312 9.75011Z" fill="#1B163F"/>
</g>
</g>
</g>
</svg>
