<svg width="26" height="26" viewBox="0 0 26 26" fill="none" xmlns="http://www.w3.org/2000/svg">
<g id="Frame">
<g id="best">
<path id="Vector" opacity="0.4" d="M8.32812 23.9688C11.1327 23.9688 13.4062 21.6952 13.4062 18.8906C13.4062 16.0861 11.1327 13.8125 8.32812 13.8125C5.52355 13.8125 3.25 16.0861 3.25 18.8906C3.25 21.6952 5.52355 23.9688 8.32812 23.9688Z" fill="#00D8C3"/>
<g id="Group">
<path id="Vector_2" d="M13 24.375C12.911 24.3742 12.8244 24.3458 12.7522 24.2937C12.3987 24.0216 4.0625 17.5906 4.0625 10.5625C4.0625 8.19213 5.00413 5.91884 6.68023 4.24273C8.35634 2.56663 10.6296 1.625 13 1.625C15.3704 1.625 17.6437 2.56663 19.3198 4.24273C20.9959 5.91884 21.9375 8.19213 21.9375 10.5625C21.9375 17.5906 13.6013 24.0216 13.2478 24.2937C13.1756 24.3458 13.089 24.3742 13 24.375ZM13 2.4375C10.8451 2.4375 8.77849 3.29352 7.25476 4.81726C5.73102 6.34099 4.875 8.40762 4.875 10.5625C4.875 16.5384 11.6147 22.3438 13 23.4488C14.3853 22.3438 21.125 16.5344 21.125 10.5625C21.125 8.40762 20.269 6.34099 18.7452 4.81726C17.2215 3.29352 15.1549 2.4375 13 2.4375Z" fill="#1B163F"/>
<path id="Vector_3" d="M17.875 9.01071C17.8525 8.94374 17.813 8.88379 17.7603 8.83677C17.7076 8.78975 17.6435 8.75728 17.5744 8.74259L14.7875 8.12509L13.3413 5.68759C13.3053 5.62694 13.2542 5.5767 13.1929 5.5418C13.1317 5.5069 13.0624 5.48854 12.9919 5.48853C12.921 5.48895 12.8514 5.50793 12.7901 5.54356C12.7289 5.5792 12.678 5.63025 12.6425 5.69165L11.2084 8.12915L8.43376 8.75071C8.36473 8.76611 8.30092 8.79927 8.24863 8.8469C8.19635 8.89453 8.1574 8.95499 8.13565 9.02229C8.1139 9.08959 8.1101 9.1614 8.12462 9.23062C8.13914 9.29985 8.17148 9.36408 8.21845 9.41696L10.1075 11.5376L9.83939 14.3813C9.83307 14.4515 9.8451 14.5221 9.8743 14.5862C9.9035 14.6503 9.94887 14.7057 10.0059 14.747C10.0757 14.7974 10.1596 14.8245 10.2456 14.8242C10.3014 14.8235 10.3565 14.8125 10.4081 14.7916L13 13.6501L15.6041 14.7795C15.6697 14.8086 15.7419 14.8198 15.8132 14.8119C15.8846 14.8041 15.9526 14.7775 16.0103 14.7348C16.068 14.6931 16.1138 14.6371 16.143 14.5722C16.1723 14.5073 16.1839 14.4359 16.1769 14.3651L15.8925 11.5213L17.7734 9.39259C17.8215 9.34284 17.856 9.28166 17.8738 9.21483C17.8916 9.148 17.892 9.07775 17.875 9.01071ZM15.1734 11.1313C15.1369 11.1734 15.1094 11.2225 15.0926 11.2756C15.0758 11.3287 15.0702 11.3847 15.0759 11.4401L15.3075 13.7598L13.1706 12.8335C13.1194 12.8112 13.0641 12.7996 13.0081 12.7996C12.9522 12.7996 12.8969 12.8112 12.8456 12.8335L10.7169 13.7679L10.9363 11.4523C10.9415 11.3966 10.9352 11.3404 10.9177 11.2873C10.9002 11.2342 10.872 11.1852 10.8347 11.1435L9.28689 9.40477L11.5578 8.89696C11.6119 8.88458 11.6629 8.86124 11.7076 8.82841C11.7523 8.79557 11.7898 8.75392 11.8178 8.70603L13 6.69915L14.1822 8.70196C14.2111 8.74954 14.2494 8.79067 14.2948 8.82282C14.3402 8.85496 14.3918 8.87743 14.4463 8.88884L16.7172 9.38853L15.1734 11.1313Z" fill="#1B163F"/>
<path id="Vector_4" opacity="0.4" d="M15.0759 11.4399L15.3075 13.7596L13.1706 12.8333C13.1194 12.811 13.064 12.7994 13.0081 12.7994C12.9522 12.7994 12.8969 12.811 12.8456 12.8333L10.7169 13.7677L10.9362 11.4521C10.9415 11.3964 10.9352 11.3403 10.9177 11.2871C10.9002 11.234 10.8719 11.1851 10.8347 11.1433L9.28687 9.4046L11.5578 8.89679C11.6119 8.8844 11.6628 8.86107 11.7076 8.82823C11.7523 8.79539 11.7898 8.75374 11.8178 8.70585L13 6.69897L14.1822 8.70179C14.211 8.74936 14.2494 8.7905 14.2948 8.82264C14.3402 8.85479 14.3918 8.87726 14.4462 8.88866L16.7172 9.38835L15.1734 11.1312C15.1369 11.1732 15.1094 11.2223 15.0926 11.2754C15.0758 11.3285 15.0701 11.3845 15.0759 11.4399Z" fill="#1B163F"/>
</g>
</g>
</g>
</svg>
