<svg width="26" height="26" viewBox="0 0 26 26" fill="none" xmlns="http://www.w3.org/2000/svg">
<g id="Frame">
<g id="user location">
<path id="Vector" d="M13 24.375C12.911 24.3742 12.8244 24.3458 12.7522 24.2937C12.3987 24.0216 4.0625 17.5906 4.0625 10.5625C4.0625 8.19213 5.00413 5.91884 6.68023 4.24273C8.35634 2.56663 10.6296 1.625 13 1.625C15.3704 1.625 17.6437 2.56663 19.3198 4.24273C20.9959 5.91884 21.9375 8.19213 21.9375 10.5625C21.9375 17.5906 13.6013 24.0216 13.2478 24.2937C13.1756 24.3458 13.089 24.3742 13 24.375ZM13 2.4375C10.8451 2.4375 8.77849 3.29352 7.25476 4.81726C5.73102 6.34099 4.875 8.40762 4.875 10.5625C4.875 16.5384 11.6147 22.3438 13 23.4487C14.3853 22.3438 21.125 16.5344 21.125 10.5625C21.125 8.40762 20.269 6.34099 18.7452 4.81726C17.2215 3.29352 15.1549 2.4375 13 2.4375Z" fill="#1B163F"/>
<path id="Vector_2" opacity="0.4" d="M12.1875 18.4844C12.1875 19.4887 11.8897 20.4705 11.3317 21.3056C10.7737 22.1407 9.9806 22.7916 9.05269 23.176C8.12478 23.5603 7.10374 23.6609 6.11868 23.4649C5.13362 23.269 4.22879 22.7853 3.5186 22.0752C2.80841 21.365 2.32477 20.4601 2.12883 19.4751C1.93289 18.49 2.03345 17.469 2.4178 16.5411C2.80215 15.6132 3.45303 14.8201 4.28812 14.2621C5.12322 13.7041 6.10502 13.4062 7.10938 13.4062H7.16219C7.5282 14.1778 8.04479 14.8685 8.68156 15.4375C9.60326 16.2595 10.7408 16.8008 11.96 16.9975C12.1085 17.4792 12.1852 17.9803 12.1875 18.4844Z" fill="#00D8C3"/>
<g id="Group">
<path id="Vector_3" d="M14.9906 6.92656C14.7464 6.66439 14.4509 6.45519 14.1224 6.31193C13.794 6.16867 13.4396 6.09441 13.0813 6.09375H12.9472C12.5887 6.09326 12.2339 6.16692 11.9053 6.3101C11.5766 6.45327 11.2811 6.66288 11.0373 6.92574C10.7935 7.18861 10.6067 7.49905 10.4886 7.83757C10.3706 8.17608 10.3238 8.53536 10.3513 8.89281L10.4203 9.78656C10.4451 10.13 10.5388 10.4649 10.6959 10.7713C10.8529 11.0777 11.0701 11.3494 11.3344 11.57C11.7995 11.9656 12.3894 12.1843 13 12.1875C13.6106 12.1879 14.2012 11.9704 14.6656 11.5741C14.9314 11.353 15.1503 11.0809 15.3094 10.7739C15.4685 10.4669 15.5645 10.1312 15.5919 9.78656L15.6609 8.89281C15.6892 8.53669 15.6442 8.17856 15.529 7.84043C15.4137 7.50229 15.2305 7.1913 14.9906 6.92656ZM14.7956 9.72156C14.7589 10.1724 14.5537 10.5928 14.221 10.8992C13.8882 11.2056 13.4523 11.3755 13 11.375C12.5505 11.3741 12.118 11.2031 11.7895 10.8964C11.4609 10.5896 11.2606 10.1699 11.2288 9.72156L11.1597 8.82781C11.1388 8.58249 11.1699 8.3355 11.2511 8.10306C11.3323 7.87062 11.4618 7.65797 11.6309 7.47906C11.7981 7.29681 12.0016 7.15166 12.2283 7.05299C12.455 6.95432 12.6999 6.90433 12.9472 6.90625H13.0813C13.3278 6.9049 13.572 6.95517 13.798 7.05382C14.024 7.15247 14.2268 7.29732 14.3934 7.47906C14.5626 7.65797 14.692 7.87062 14.7733 8.10306C14.8545 8.3355 14.8856 8.58249 14.8647 8.82781L14.7956 9.72156Z" fill="#1B163F"/>
<path id="Vector_4" opacity="0.4" d="M14.8646 8.82787L14.7956 9.72162C14.7588 10.1724 14.5537 10.5929 14.2209 10.8993C13.8882 11.2057 13.4523 11.3755 13 11.3751C12.5505 11.3741 12.118 11.2031 11.7894 10.8964C11.4608 10.5897 11.2605 10.17 11.2287 9.72162L11.1596 8.82787C11.1387 8.58254 11.1699 8.33555 11.2511 8.10311C11.3323 7.87067 11.4617 7.65802 11.6309 7.47912C11.798 7.29686 12.0015 7.15171 12.2282 7.05304C12.455 6.95437 12.6999 6.90438 12.9471 6.9063H13.0812C13.3278 6.90495 13.5719 6.95522 13.7979 7.05387C14.0239 7.15252 14.2267 7.29737 14.3934 7.47912C14.5626 7.65802 14.692 7.87067 14.7732 8.10311C14.8544 8.33555 14.8856 8.58254 14.8646 8.82787Z" fill="#1B163F"/>
<path id="Vector_5" d="M14.6818 11.5741C14.278 11.4416 13.8556 11.3744 13.4306 11.375H12.5693C12.1555 11.377 11.7444 11.4428 11.3506 11.57C10.5869 11.8119 9.91186 12.2742 9.41021 12.8987C8.90857 13.5233 8.60275 14.2822 8.53121 15.08C8.52639 15.1431 8.53637 15.2064 8.56035 15.265C8.58433 15.3235 8.62165 15.3756 8.66934 15.4172C9.85918 16.4749 11.3958 17.0591 12.9878 17.0591C14.5797 17.0591 16.1164 16.4749 17.3062 15.4172C17.3539 15.3756 17.3912 15.3235 17.4152 15.265C17.4392 15.2064 17.4492 15.1431 17.4443 15.08C17.3764 14.2897 17.0786 13.5367 16.5877 12.9137C16.0968 12.2906 15.4343 11.825 14.6818 11.5741ZM13 16.25C11.6771 16.25 10.3957 15.7888 9.37621 14.9459C9.49318 14.1814 9.87896 13.4837 10.4642 12.9781C11.0495 12.4724 11.7959 12.1921 12.5693 12.1875H13.4306C14.204 12.1921 14.9504 12.4724 15.5357 12.9781C16.121 13.4837 16.5067 14.1814 16.6237 14.9459C15.6042 15.7888 14.3228 16.25 13 16.25Z" fill="#1B163F"/>
<path id="Vector_6" opacity="0.4" d="M16.6237 14.9459C15.6042 15.7887 14.3228 16.2498 13 16.2498C11.6772 16.2498 10.3958 15.7887 9.37622 14.9459C9.49319 14.1814 9.87897 13.4837 10.4642 12.978C11.0495 12.4724 11.7959 12.1921 12.5693 12.1875H13.4306C14.204 12.1921 14.9504 12.4724 15.5357 12.978C16.121 13.4837 16.5068 14.1814 16.6237 14.9459Z" fill="#1B163F"/>
<path id="Vector_7" d="M13 4.0625C11.8986 4.0637 10.8155 4.34476 9.85253 4.87929C8.88953 5.41382 8.07815 6.18428 7.49455 7.11836C6.91096 8.05245 6.57429 9.1195 6.51614 10.2194C6.458 11.3192 6.6803 12.4158 7.16216 13.4062C7.52818 14.1778 8.04476 14.8685 8.68154 15.4375C9.60324 16.2595 10.7408 16.8008 11.96 16.9975C12.3043 17.0477 12.6521 17.0694 13 17.0625C14.7239 17.0625 16.3772 16.3777 17.5962 15.1587C18.8152 13.9397 19.5 12.2864 19.5 10.5625C19.5 8.83859 18.8152 7.18529 17.5962 5.96631C16.3772 4.74732 14.7239 4.0625 13 4.0625ZM16.7781 14.8078C15.7391 15.7371 14.3939 16.2506 13 16.25C12.5188 16.2508 12.0395 16.1894 11.574 16.0672C10.3543 15.7513 9.27399 15.0393 8.50268 14.043C7.73137 13.0467 7.31273 11.8225 7.31248 10.5625C7.31148 9.61277 7.54833 8.67791 8.00141 7.84322C8.4545 7.00853 9.10939 6.30059 9.90633 5.784C10.7033 5.2674 11.6169 4.95861 12.5638 4.88578C13.5108 4.81295 14.4609 4.97841 15.3274 5.36706C16.194 5.75572 16.9494 6.35519 17.5248 7.11078C18.1002 7.86637 18.4773 8.75401 18.6215 9.69273C18.7657 10.6314 18.6726 11.5913 18.3506 12.4848C18.0286 13.3783 17.488 14.1769 16.7781 14.8078Z" fill="#1B163F"/>
</g>
</g>
</g>
</svg>
