<svg width="26" height="26" viewBox="0 0 26 26" fill="none" xmlns="http://www.w3.org/2000/svg">
<g id="Frame">
<g id="Destination">
<path id="Vector" opacity="0.4" d="M9.14062 13.8125C11.9452 13.8125 14.2188 11.5389 14.2188 8.73438C14.2188 5.9298 11.9452 3.65625 9.14062 3.65625C6.33605 3.65625 4.0625 5.9298 4.0625 8.73438C4.0625 11.5389 6.33605 13.8125 9.14062 13.8125Z" fill="#1B163F"/>
<path id="Vector_2" d="M19.9062 2.84375C19.0506 2.8437 18.2294 3.18108 17.621 3.78269C17.0125 4.3843 16.6659 5.20159 16.6563 6.05719C16.6562 9.08781 19.6138 10.4691 19.7397 10.5259L19.9062 10.6031L20.0728 10.5259C20.1987 10.4691 23.1562 9.08781 23.1562 6.05719C23.1466 5.20159 22.8 4.3843 22.1915 3.78269C21.5831 3.18108 20.7619 2.8437 19.9062 2.84375ZM19.9062 9.69719C19.3294 9.38031 17.4688 8.19 17.4688 6.04094C17.4688 5.39447 17.7256 4.77448 18.1827 4.31736C18.6398 3.86024 19.2598 3.60344 19.9062 3.60344C20.5527 3.60344 21.1727 3.86024 21.6298 4.31736C22.0869 4.77448 22.3438 5.39447 22.3438 6.04094C22.3438 8.18187 20.4831 9.38031 19.9062 9.69719Z" fill="#1B163F"/>
<path id="Vector_3" opacity="0.4" d="M19.9062 3.65625C19.2661 3.65618 18.6516 3.90796 18.1955 4.3572C17.7394 4.80644 17.4784 5.41708 17.4688 6.05719C17.4688 8.19 19.3294 9.38031 19.9062 9.71344C20.4831 9.39656 22.3438 8.19812 22.3438 6.05719C22.3341 5.41708 22.0731 4.80644 21.617 4.3572C21.1609 3.90796 20.5464 3.65618 19.9062 3.65625ZM19.9062 7.67C19.5908 7.66519 19.2837 7.56725 19.0237 7.38848C18.7637 7.2097 18.5624 6.95807 18.445 6.66521C18.3275 6.37234 18.2993 6.0513 18.3638 5.74243C18.4283 5.43357 18.5826 5.15065 18.8074 4.92923C19.0322 4.70781 19.3174 4.55777 19.6272 4.49796C19.937 4.43814 20.2576 4.47123 20.5487 4.59307C20.8397 4.7149 21.0883 4.92003 21.2631 5.1827C21.4379 5.44537 21.5312 5.75385 21.5312 6.06937C21.5248 6.49611 21.3508 6.9032 21.0468 7.2027C20.7427 7.50219 20.333 7.67005 19.9062 7.67Z" fill="#00D8C3"/>
<path id="Vector_4" d="M19.9063 4.46875C19.5908 4.47356 19.2838 4.5715 19.0238 4.75027C18.7638 4.92905 18.5625 5.18068 18.445 5.47354C18.3276 5.76641 18.2994 6.08745 18.3639 6.39632C18.4283 6.70518 18.5827 6.9881 18.8075 7.20952C19.0323 7.43094 19.3175 7.58098 19.6273 7.64079C19.9371 7.7006 20.2577 7.66752 20.5487 7.54568C20.8398 7.42385 21.0884 7.21872 21.2632 6.95605C21.438 6.69338 21.5313 6.3849 21.5313 6.06937C21.5249 5.64264 21.3509 5.23555 21.0468 4.93605C20.7428 4.63656 20.3331 4.4687 19.9063 4.46875ZM19.9063 6.8575C19.7516 6.85271 19.6017 6.80245 19.4753 6.71299C19.3489 6.62353 19.2517 6.49884 19.1958 6.35447C19.1399 6.2101 19.1277 6.05246 19.1608 5.90122C19.1939 5.74998 19.2708 5.61184 19.382 5.50404C19.4931 5.39625 19.6335 5.32357 19.7857 5.29508C19.9379 5.2666 20.0951 5.28356 20.2377 5.34386C20.3803 5.40416 20.5019 5.50513 20.5875 5.63416C20.6731 5.76318 20.7188 5.91455 20.7188 6.06937C20.7125 6.28061 20.6241 6.48107 20.4724 6.62821C20.3207 6.77535 20.1177 6.85759 19.9063 6.8575Z" fill="#1B163F"/>
<path id="Vector_5" d="M8.72223 19.5489L3.44098 16.7051C3.3699 16.6617 3.28717 16.6411 3.20403 16.6463C3.12088 16.6514 3.04132 16.682 2.97614 16.7339C2.91095 16.7858 2.8633 16.8564 2.83962 16.9363C2.81595 17.0162 2.81741 17.1014 2.84379 17.1804L3.65629 19.9064L2.84379 22.6323C2.8211 22.7093 2.82172 22.7913 2.84558 22.8679C2.86944 22.9446 2.91547 23.0124 2.97786 23.0629C3.05414 23.1262 3.15095 23.1595 3.25004 23.1564C3.31673 23.156 3.3823 23.1393 3.44098 23.1076L8.72223 20.2639C8.78672 20.2291 8.8406 20.1775 8.87815 20.1145C8.9157 20.0516 8.93552 19.9797 8.93552 19.9064C8.93552 19.8331 8.9157 19.7612 8.87815 19.6982C8.8406 19.6353 8.78672 19.5837 8.72223 19.5489ZM3.92036 21.9376L4.49317 20.0364C4.51645 19.9596 4.51645 19.8776 4.49317 19.8007L3.92036 17.8751L7.67411 19.9064L3.92036 21.9376Z" fill="#1B163F"/>
<path id="Vector_6" opacity="0.4" d="M4.49322 20.0241C4.5165 19.9472 4.5165 19.8653 4.49322 19.7884L3.92041 17.875L7.67416 19.9062L3.92041 21.9375L4.49322 20.0241Z" fill="#00D8C3"/>
<path id="Vector_7" d="M19.2969 20.3125H9.75C9.64226 20.3125 9.53892 20.2697 9.46274 20.1935C9.38655 20.1173 9.34375 20.014 9.34375 19.9062C9.34375 19.7985 9.38655 19.6952 9.46274 19.619C9.53892 19.5428 9.64226 19.5 9.75 19.5H19.2969C19.7817 19.5 20.2467 19.3074 20.5896 18.9646C20.9324 18.6217 21.125 18.1567 21.125 17.6719C21.125 17.187 20.9324 16.722 20.5896 16.3792C20.2467 16.0364 19.7817 15.8438 19.2969 15.8438H6.70312C6.00279 15.8437 5.33113 15.5655 4.83592 15.0703C4.34071 14.5751 4.0625 13.9035 4.0625 13.2031C4.0625 12.5028 4.34071 11.8311 4.83592 11.3359C5.33113 10.8407 6.00279 10.5625 6.70312 10.5625H19.9062C20.014 10.5625 20.1173 10.6053 20.1935 10.6815C20.2697 10.7577 20.3125 10.861 20.3125 10.9688C20.3125 11.0765 20.2697 11.1798 20.1935 11.256C20.1173 11.3322 20.014 11.375 19.9062 11.375H6.70312C6.21828 11.375 5.75329 11.5676 5.41045 11.9104C5.06761 12.2533 4.875 12.7183 4.875 13.2031C4.875 13.688 5.06761 14.153 5.41045 14.4958C5.75329 14.8386 6.21828 15.0312 6.70312 15.0312H19.2969C19.9972 15.0312 20.6689 15.3095 21.1641 15.8047C21.6593 16.2999 21.9375 16.9715 21.9375 17.6719C21.9375 18.3722 21.6593 19.0439 21.1641 19.5391C20.6689 20.0343 19.9972 20.3125 19.2969 20.3125Z" fill="#1B163F"/>
</g>
</g>
</svg>
