<svg width="26" height="26" viewBox="0 0 26 26" fill="none" xmlns="http://www.w3.org/2000/svg">
<g id="Frame">
<g id="Search">
<path id="Vector" opacity="0.4" d="M7.92188 13C10.7264 13 13 10.7264 13 7.92188C13 5.1173 10.7264 2.84375 7.92188 2.84375C5.1173 2.84375 2.84375 5.1173 2.84375 7.92188C2.84375 10.7264 5.1173 13 7.92188 13Z" fill="#1B163F"/>
<path id="Vector_2" opacity="0.4" d="M18.2812 15.031C18.2808 15.7033 18.072 16.3588 17.6835 16.9074C17.2949 17.456 16.7459 17.8706 16.1119 18.0942C15.7655 18.2195 15.3996 18.2828 15.0312 18.281C14.1693 18.281 13.3426 17.9386 12.7332 17.3291C12.1237 16.7196 11.7813 15.893 11.7812 15.031C11.7812 14.1691 12.1237 13.3424 12.7332 12.7329C13.3426 12.1234 14.1693 11.781 15.0312 11.781C15.4009 11.7797 15.768 11.8429 16.1159 11.9679C16.7492 12.1921 17.2974 12.607 17.6851 13.1555C18.0729 13.7041 18.2811 14.3593 18.2812 15.031Z" fill="#00D8C3"/>
<g id="Group">
<path id="Vector_3" d="M3.25 23.1561C3.14226 23.1561 3.03893 23.1133 2.96274 23.0372C2.88655 22.961 2.84375 22.8576 2.84375 22.7499V5.6874C2.84348 5.60439 2.86865 5.5233 2.91586 5.45502C2.96307 5.38675 3.03006 5.33458 3.10781 5.30552L9.60781 2.86802C9.66942 2.84535 9.7356 2.83794 9.80069 2.84643C9.86578 2.85492 9.92784 2.87906 9.98156 2.91677C10.0354 2.95411 10.0794 3.0039 10.1098 3.0619C10.1402 3.1199 10.1561 3.1844 10.1563 3.2499V20.3124C10.1565 20.3954 10.1314 20.4765 10.0841 20.5448C10.0369 20.613 9.96995 20.6652 9.89219 20.6943L3.39219 23.1318C3.34663 23.1483 3.29847 23.1566 3.25 23.1561ZM3.65625 5.96771V22.1649L9.34375 20.0321V3.8349L3.65625 5.96771Z" fill="#1B163F"/>
<path id="Vector_4" d="M16.25 18.8824C16.1423 18.8824 16.0389 18.8396 15.9627 18.7634C15.8866 18.6872 15.8438 18.5839 15.8438 18.4762V11.5699C15.844 11.5052 15.8597 11.4414 15.8896 11.384C15.9195 11.3266 15.9627 11.2771 16.0155 11.2398C16.0684 11.2024 16.1294 11.1782 16.1935 11.1692C16.2576 11.1602 16.323 11.1667 16.3841 11.188C17.1739 11.4694 17.8572 11.9883 18.3405 12.6734C18.8237 13.3586 19.0831 14.1765 19.0831 15.0149C19.0831 15.8533 18.8237 16.6712 18.3405 17.3564C17.8572 18.0415 17.1739 18.5604 16.3841 18.8418C16.3421 18.863 16.2967 18.8767 16.25 18.8824ZM16.6563 12.2159V17.8465C17.1507 17.5613 17.5613 17.151 17.8467 16.6568C18.1322 16.1626 18.2825 15.6019 18.2825 15.0312C18.2825 14.4604 18.1322 13.8997 17.8467 13.4055C17.5613 12.9113 17.1507 12.501 16.6563 12.2159Z" fill="#1B163F"/>
<path id="Vector_5" d="M16.25 23.156C16.1423 23.156 16.0389 23.1132 15.9628 23.037C15.8866 22.9609 15.8438 22.8575 15.8438 22.7498V20.1701C15.8413 20.0767 15.871 19.9854 15.928 19.9114C15.985 19.8374 16.0657 19.7853 16.1566 19.7639C16.7886 19.6124 17.3839 19.3362 17.9075 18.9514C17.9859 18.8938 18.0822 18.8663 18.1791 18.8738C18.276 18.8812 18.367 18.9232 18.4356 18.992L20.4303 20.9907C20.479 21.0389 20.5147 21.0985 20.5341 21.1641C20.5535 21.2298 20.5561 21.2992 20.5415 21.3661C20.5269 21.433 20.4957 21.4951 20.4507 21.5466C20.4057 21.5982 20.3484 21.6375 20.2841 21.661L16.3922 23.1195C16.3474 23.1402 16.2992 23.1526 16.25 23.156ZM16.6563 20.4829V22.1648L19.4106 21.1248L18.0985 19.8126C17.6517 20.1029 17.1662 20.3286 16.6563 20.4829Z" fill="#1B163F"/>
<path id="Vector_6" d="M21.8116 21.0721C21.7581 21.0724 21.7051 21.0621 21.6556 21.0419C21.6061 21.0217 21.5611 20.9919 21.5231 20.9543L19.0044 18.4355C18.9356 18.3669 18.8936 18.2759 18.8862 18.179C18.8787 18.0821 18.9063 17.9857 18.9638 17.9074C19.4385 17.2585 19.7453 16.5023 19.857 15.7061C19.9687 14.9099 19.8817 14.0985 19.6038 13.344C19.3259 12.5896 18.8657 11.9156 18.2643 11.3821C17.6628 10.8486 16.9388 10.4721 16.1566 10.2861C16.0657 10.2647 15.985 10.2126 15.928 10.1386C15.871 10.0646 15.8413 9.97325 15.8438 9.8799V5.6874C15.8435 5.60439 15.8687 5.5233 15.9159 5.45502C15.9631 5.38675 16.0301 5.33458 16.1078 5.30552L22.6078 2.86802C22.6694 2.84535 22.7356 2.83794 22.8007 2.84643C22.8658 2.85492 22.9279 2.87906 22.9816 2.91677C23.0354 2.95411 23.0794 3.0039 23.1098 3.0619C23.1402 3.1199 23.1562 3.1844 23.1563 3.2499V20.3124C23.1565 20.3954 23.1314 20.4765 23.0842 20.5448C23.037 20.613 22.97 20.6652 22.8922 20.6943L21.9375 21.0477C21.8971 21.0625 21.8546 21.0707 21.8116 21.0721ZM19.821 18.0983L21.9131 20.1946L22.3438 20.0321V3.8349L16.6563 5.96771V9.57927C17.5027 9.83036 18.279 10.275 18.9238 10.8781C19.5686 11.4812 20.0641 12.2261 20.3712 13.0538C20.6782 13.8816 20.7884 14.7694 20.6929 15.6471C20.5974 16.5248 20.2988 17.3682 19.821 18.1105V18.0983Z" fill="#1B163F"/>
<path id="Vector_7" d="M16.25 23.1562C16.2015 23.1567 16.1534 23.1484 16.1078 23.1319L9.60781 20.6944C9.53006 20.6653 9.46307 20.6131 9.41586 20.5449C9.36865 20.4766 9.34348 20.3955 9.34375 20.3125V15.0312C9.34375 14.9235 9.38655 14.8202 9.46274 14.744C9.53893 14.6678 9.64226 14.625 9.75 14.625C9.85775 14.625 9.96108 14.6678 10.0373 14.744C10.1135 14.8202 10.1563 14.9235 10.1563 15.0312C10.1563 16.3242 10.6699 17.5642 11.5841 18.4784C12.4983 19.3926 13.7383 19.9062 15.0313 19.9062C15.4101 19.9061 15.7877 19.8624 16.1566 19.7763C16.2171 19.7619 16.2802 19.7617 16.3408 19.7756C16.4015 19.7895 16.4581 19.8171 16.5064 19.8564C16.5547 19.8956 16.5933 19.9454 16.6193 20.002C16.6453 20.0585 16.6579 20.1203 16.6563 20.1825V22.75C16.6563 22.8577 16.6135 22.9611 16.5373 23.0373C16.4611 23.1134 16.3577 23.1562 16.25 23.1562ZM10.1563 20.0322L15.8438 22.165V20.6619C15.5745 20.6991 15.3031 20.7181 15.0313 20.7188C14.0497 20.7187 13.0849 20.4646 12.2306 19.9813C11.3764 19.4979 10.6617 18.8017 10.1563 17.9603V20.0322Z" fill="#1B163F"/>
<path id="Vector_8" d="M9.75 15.4374C9.64226 15.4374 9.53892 15.3946 9.46274 15.3184C9.38655 15.2422 9.34375 15.1389 9.34375 15.0311V3.2499C9.34386 3.1844 9.3598 3.1199 9.39022 3.0619C9.42063 3.0039 9.46462 2.95411 9.51844 2.91677C9.57216 2.87906 9.63423 2.85492 9.69932 2.84643C9.76441 2.83794 9.83059 2.84535 9.89219 2.86802L16.3922 5.30552C16.4699 5.33458 16.5369 5.38675 16.5841 5.45502C16.6314 5.5233 16.6565 5.60439 16.6562 5.6874V9.89209C16.6579 9.95429 16.6453 10.0161 16.6193 10.0726C16.5933 10.1291 16.5547 10.179 16.5064 10.2182C16.4581 10.2575 16.4015 10.2851 16.3408 10.299C16.2802 10.3129 16.2171 10.3127 16.1566 10.2983C15.7881 10.208 15.4106 10.1603 15.0312 10.1561C13.7383 10.1561 12.4983 10.6698 11.5841 11.584C10.6699 12.4982 10.1562 13.7382 10.1562 15.0311C10.1562 15.1389 10.1134 15.2422 10.0373 15.3184C9.96108 15.3946 9.85774 15.4374 9.75 15.4374ZM10.1562 3.8349V12.1021C10.6617 11.2607 11.3764 10.5645 12.2306 10.0811C13.0849 9.59776 14.0497 9.34369 15.0312 9.34365C15.3031 9.34426 15.5745 9.36326 15.8438 9.40052V5.96771L10.1562 3.8349Z" fill="#1B163F"/>
<path id="Vector_9" d="M15.0312 19.0935C13.9538 19.0935 12.9205 18.6655 12.1586 17.9037C11.3968 17.1418 10.9688 16.1085 10.9688 15.031C10.9688 13.9536 11.3968 12.9203 12.1586 12.1584C12.9205 11.3966 13.9538 10.9685 15.0312 10.9685C15.4939 10.9665 15.9533 11.0463 16.3881 11.2042C16.4666 11.2326 16.5345 11.2844 16.5825 11.3528C16.6305 11.4211 16.6562 11.5026 16.6562 11.586V18.4923C16.6562 18.5758 16.6305 18.6572 16.5825 18.7256C16.5345 18.7939 16.4666 18.8458 16.3881 18.8742C15.9523 19.0265 15.4929 19.1008 15.0312 19.0935ZM15.0312 11.781C14.1693 11.781 13.3426 12.1235 12.7332 12.7329C12.1237 13.3424 11.7813 14.1691 11.7812 15.031C11.7813 15.893 12.1237 16.7196 12.7332 17.3291C13.3426 17.9386 14.1693 18.281 15.0312 18.281C15.3055 18.2807 15.5786 18.2452 15.8438 18.1754V11.8867C15.5786 11.8168 15.3055 11.7814 15.0312 11.781Z" fill="#1B163F"/>
<path id="Vector_10" d="M21.97 23.1888C21.6531 23.1853 21.35 23.0585 21.125 22.8353L18.1147 19.8209C17.5772 20.1685 16.9833 20.4201 16.3597 20.5644C15.9246 20.6684 15.4786 20.7202 15.0312 20.7188C13.5228 20.7188 12.0762 20.1195 11.0096 19.0529C9.94297 17.9863 9.34375 16.5397 9.34375 15.0312C9.34375 13.5228 9.94297 12.0762 11.0096 11.0096C12.0762 9.94297 13.5228 9.34375 15.0312 9.34375C16.0518 9.34373 17.0536 9.61831 17.9315 10.1387C18.8094 10.6591 19.5311 11.4061 20.0209 12.3015C20.5108 13.1968 20.7507 14.2074 20.7155 15.2274C20.6803 16.2473 20.3713 17.239 19.8209 18.0984L22.8353 21.125C23.0058 21.2957 23.1218 21.5131 23.1686 21.7498C23.2154 21.9864 23.1909 22.2316 23.0983 22.4544C23.0056 22.6771 22.8489 22.8673 22.6481 23.001C22.4472 23.1346 22.2112 23.2056 21.97 23.205V23.1888ZM18.1472 18.8866C18.2007 18.8863 18.2537 18.8965 18.3031 18.9167C18.3526 18.9369 18.3977 18.9667 18.4356 19.0044L21.6856 22.2544C21.7613 22.3294 21.8634 22.3717 21.97 22.3722C22.0235 22.3725 22.0765 22.3622 22.126 22.342C22.1755 22.3218 22.2205 22.292 22.2584 22.2544C22.3341 22.1783 22.3766 22.0753 22.3766 21.968C22.3766 21.8606 22.3341 21.7577 22.2584 21.6816L19.0084 18.4316C18.9396 18.3629 18.8977 18.2719 18.8902 18.175C18.8828 18.0781 18.9103 17.9818 18.9678 17.9034C19.4425 17.2546 19.7494 16.4983 19.861 15.7022C19.9727 14.906 19.8857 14.0945 19.6078 13.3401C19.3299 12.5856 18.8698 11.9116 18.2683 11.3781C17.6669 10.8446 16.9428 10.4681 16.1606 10.2822C15.7902 10.197 15.4113 10.1548 15.0312 10.1562C13.7383 10.1562 12.4983 10.6699 11.5841 11.5841C10.6699 12.4983 10.1562 13.7383 10.1562 15.0312C10.1562 16.3242 10.6699 17.5642 11.5841 18.4784C12.4983 19.3926 13.7383 19.9062 15.0312 19.9062C15.4101 19.9061 15.7877 19.8624 16.1566 19.7763C16.7885 19.6248 17.3838 19.3486 17.9075 18.9638C17.9772 18.9133 18.0611 18.8863 18.1472 18.8866ZM15.0312 19.0938C13.9538 19.0938 12.9205 18.6657 12.1586 17.9039C11.3968 17.142 10.9688 16.1087 10.9688 15.0312C10.9688 13.9538 11.3968 12.9205 12.1586 12.1586C12.9205 11.3968 13.9538 10.9688 15.0312 10.9688C15.4939 10.9667 15.9533 11.0465 16.3881 11.2044C17.1779 11.4858 17.8613 12.0046 18.3445 12.6898C18.8278 13.3749 19.0872 14.1928 19.0872 15.0312C19.0872 15.8697 18.8278 16.6876 18.3445 17.3727C17.8613 18.0579 17.1779 18.5767 16.3881 18.8581C15.9532 19.0157 15.4939 19.0955 15.0312 19.0938ZM15.0312 11.7812C14.1693 11.7813 13.3426 12.1237 12.7332 12.7332C12.1237 13.3426 11.7813 14.1693 11.7812 15.0312C11.7813 15.8932 12.1237 16.7199 12.7332 17.3293C13.3426 17.9388 14.1693 18.2812 15.0312 18.2812C15.3996 18.283 15.7655 18.2197 16.1119 18.0944C16.7448 17.8699 17.2927 17.4549 17.6802 16.9064C18.0677 16.3579 18.2757 15.7028 18.2757 15.0312C18.2757 14.3597 18.0677 13.7046 17.6802 13.1561C17.2927 12.6076 16.7448 12.1926 16.1119 11.9681C15.7652 11.8436 15.3996 11.7803 15.0312 11.7812Z" fill="#1B163F"/>
<path id="Vector_11" d="M15.0313 19.0935C13.9538 19.0935 12.9205 18.6655 12.1586 17.9037C11.3968 17.1418 10.9688 16.1085 10.9688 15.031C10.9688 13.9536 11.3968 12.9203 12.1586 12.1584C12.9205 11.3966 13.9538 10.9685 15.0313 10.9685C15.4939 10.9665 15.9533 11.0463 16.3881 11.2042C17.1779 11.4856 17.8613 12.0044 18.3446 12.6896C18.8278 13.3747 19.0872 14.1926 19.0872 15.031C19.0872 15.8695 18.8278 16.6874 18.3446 17.3725C17.8613 18.0577 17.1779 18.5765 16.3881 18.8579C15.9535 19.0167 15.494 19.0965 15.0313 19.0935ZM15.0313 11.781C14.1693 11.781 13.3426 12.1235 12.7332 12.7329C12.1237 13.3424 11.7813 14.1691 11.7813 15.031C11.7813 15.893 12.1237 16.7196 12.7332 17.3291C13.3426 17.9386 14.1693 18.281 15.0313 18.281C15.3996 18.2828 15.7655 18.2195 16.1119 18.0942C16.7448 17.8697 17.2927 17.4547 17.6802 16.9062C18.0677 16.3577 18.2757 15.7026 18.2757 15.031C18.2757 14.3595 18.0677 13.7044 17.6802 13.1559C17.2927 12.6074 16.7448 12.1924 16.1119 11.9679C15.7652 11.8434 15.3996 11.7801 15.0313 11.781Z" fill="#1B163F"/>
<path id="Vector_12" d="M16.3881 11.2042C15.9533 11.0463 15.4939 10.9665 15.0312 10.9685C13.9538 10.9685 12.9205 11.3966 12.1586 12.1584C11.3968 12.9203 10.9688 13.9536 10.9688 15.031C10.9688 16.1085 11.3968 17.1418 12.1586 17.9037C12.9205 18.6655 13.9538 19.0935 15.0312 19.0935C15.4926 19.096 15.9507 19.0162 16.3841 18.8579C17.1739 18.5765 17.8572 18.0577 18.3405 17.3725C18.8237 16.6874 19.0831 15.8695 19.0831 15.031C19.0831 14.1926 18.8237 13.3747 18.3405 12.6896C17.8572 12.0044 17.1739 11.4856 16.3841 11.2042H16.3881ZM16.1119 18.1104C15.7645 18.2302 15.3987 18.288 15.0312 18.281C14.1693 18.281 13.3426 17.9386 12.7332 17.3291C12.1237 16.7196 11.7812 15.893 11.7812 15.031C11.7812 14.1691 12.1237 13.3424 12.7332 12.7329C13.3426 12.1235 14.1693 11.781 15.0312 11.781C15.4009 11.7797 15.768 11.8429 16.1159 11.9679C16.7489 12.1924 17.2968 12.6074 17.6842 13.1559C18.0717 13.7044 18.2798 14.3595 18.2798 15.031C18.2798 15.7026 18.0717 16.3577 17.6842 16.9062C17.2968 17.4547 16.7489 17.8697 16.1159 18.0942L16.1119 18.1104Z" fill="#1B163F"/>
</g>
</g>
</g>
</svg>
