<svg width="26" height="26" viewBox="0 0 26 26" fill="none" xmlns="http://www.w3.org/2000/svg">
<g id="Frame">
<g id="book map">
<path id="Vector" opacity="0.4" d="M6.70312 23.9688C9.5077 23.9688 11.7812 21.6952 11.7812 18.8906C11.7812 16.0861 9.5077 13.8125 6.70312 13.8125C3.89855 13.8125 1.625 16.0861 1.625 18.8906C1.625 21.6952 3.89855 23.9688 6.70312 23.9688Z" fill="#00D8C3"/>
<g id="Group">
<path id="Vector_2" opacity="0.4" d="M19.0938 8.50293C19.0938 9.92074 17.9156 10.7211 17.4688 10.977C17.0178 10.7211 15.8438 9.92074 15.8438 8.50293C15.8438 8.07195 16.015 7.65863 16.3197 7.35388C16.6244 7.04913 17.0378 6.87793 17.4688 6.87793C17.8997 6.87793 18.3131 7.04913 18.6178 7.35388C18.9225 7.65863 19.0938 8.07195 19.0938 8.50293Z" fill="#1B163F"/>
<path id="Vector_3" d="M13.2397 21.9375H12.7603C12.2855 21.9357 11.8303 21.7475 11.4928 21.4134C11.3094 21.2304 11.0613 21.1268 10.8022 21.125H2.84375C2.52052 21.125 2.21052 20.9966 1.98196 20.768C1.7534 20.5395 1.625 20.2295 1.625 19.9062V6.09375C1.625 5.77052 1.7534 5.46052 1.98196 5.23196C2.21052 5.0034 2.52052 4.875 2.84375 4.875H3.65625C3.76399 4.875 3.86733 4.9178 3.94351 4.99399C4.0197 5.07017 4.0625 5.17351 4.0625 5.28125V18.6875H11.375C11.6903 18.6875 12.0014 18.7609 12.2834 18.9019C12.5655 19.043 12.8108 19.2477 13 19.5C13.1892 19.2477 13.4345 19.043 13.7166 18.9019C13.9986 18.7609 14.3097 18.6875 14.625 18.6875H21.9375V5.28125C21.9375 5.17351 21.9803 5.07017 22.0565 4.99399C22.1327 4.9178 22.236 4.875 22.3438 4.875H23.1562C23.4795 4.875 23.7895 5.0034 24.018 5.23196C24.2466 5.46052 24.375 5.77052 24.375 6.09375V19.9062C24.375 20.2295 24.2466 20.5395 24.018 20.768C23.7895 20.9966 23.4795 21.125 23.1562 21.125H15.1978C14.9387 21.1268 14.6906 21.2304 14.5072 21.4134C14.1697 21.7475 13.7145 21.9357 13.2397 21.9375ZM2.84375 5.6875C2.73601 5.6875 2.63267 5.7303 2.55649 5.80649C2.4803 5.88267 2.4375 5.98601 2.4375 6.09375V19.9062C2.4375 20.014 2.4803 20.1173 2.55649 20.1935C2.63267 20.2697 2.73601 20.3125 2.84375 20.3125H10.8022C11.277 20.3143 11.7322 20.5025 12.0697 20.8366C12.2531 21.0196 12.5012 21.1232 12.7603 21.125H13.2397C13.4988 21.1232 13.7469 21.0196 13.9303 20.8366C14.2678 20.5025 14.723 20.3143 15.1978 20.3125H23.1562C23.264 20.3125 23.3673 20.2697 23.4435 20.1935C23.5197 20.1173 23.5625 20.014 23.5625 19.9062V6.09375C23.5625 5.98601 23.5197 5.88267 23.4435 5.80649C23.3673 5.7303 23.264 5.6875 23.1562 5.6875H22.75V19.0938C22.75 19.2015 22.7072 19.3048 22.631 19.381C22.5548 19.4572 22.4515 19.5 22.3438 19.5H14.625C14.3018 19.5 13.9918 19.6284 13.7632 19.857C13.5347 20.0855 13.4062 20.3955 13.4062 20.7188C13.4062 20.8265 13.3634 20.9298 13.2873 21.006C13.2111 21.0822 13.1077 21.125 13 21.125C12.8923 21.125 12.7889 21.0822 12.7127 21.006C12.6366 20.9298 12.5938 20.8265 12.5938 20.7188C12.5937 20.3955 12.4653 20.0855 12.2368 19.857C12.0082 19.6284 11.6982 19.5 11.375 19.5H3.65625C3.54851 19.5 3.44517 19.4572 3.36899 19.381C3.2928 19.3048 3.25 19.2015 3.25 19.0938V5.6875H2.84375Z" fill="#1B163F"/>
<path id="Vector_4" d="M13 21.125C12.8923 21.125 12.7889 21.0822 12.7127 21.006C12.6366 20.9298 12.5938 20.8265 12.5938 20.7188V6.09375C12.5938 5.55503 12.8078 5.03837 13.1887 4.65744C13.5696 4.27651 14.0863 4.0625 14.625 4.0625H22.3438C22.4515 4.0625 22.5548 4.1053 22.631 4.18149C22.7072 4.25767 22.75 4.36101 22.75 4.46875V19.0938C22.75 19.2015 22.7072 19.3048 22.631 19.381C22.5548 19.4572 22.4515 19.5 22.3438 19.5H14.625C14.3018 19.5 13.9918 19.6284 13.7632 19.857C13.5347 20.0855 13.4062 20.3955 13.4062 20.7188C13.4062 20.8265 13.3634 20.9298 13.2873 21.006C13.2111 21.0822 13.1077 21.125 13 21.125ZM14.625 4.875C14.3018 4.875 13.9918 5.0034 13.7632 5.23196C13.5347 5.46052 13.4062 5.77052 13.4062 6.09375V19.0938C13.7579 18.83 14.1855 18.6875 14.625 18.6875H21.9375V4.875H14.625Z" fill="#1B163F"/>
<path id="Vector_5" d="M13 21.125C12.8923 21.125 12.7889 21.0822 12.7127 21.006C12.6366 20.9298 12.5938 20.8265 12.5938 20.7188C12.5937 20.3955 12.4653 20.0855 12.2368 19.857C12.0082 19.6284 11.6982 19.5 11.375 19.5H3.65625C3.54851 19.5 3.44517 19.4572 3.36899 19.381C3.2928 19.3048 3.25 19.2015 3.25 19.0938V4.46875C3.25 4.36101 3.2928 4.25767 3.36899 4.18149C3.44517 4.1053 3.54851 4.0625 3.65625 4.0625H11.375C11.9137 4.0625 12.4304 4.27651 12.8113 4.65744C13.1922 5.03837 13.4062 5.55503 13.4062 6.09375V20.7188C13.4062 20.8265 13.3634 20.9298 13.2873 21.006C13.2111 21.0822 13.1077 21.125 13 21.125ZM4.0625 18.6875H11.375C11.8145 18.6875 12.2421 18.83 12.5938 19.0938V6.09375C12.5937 5.77052 12.4653 5.46052 12.2368 5.23196C12.0082 5.0034 11.6982 4.875 11.375 4.875H4.0625V18.6875Z" fill="#1B163F"/>
<path id="Vector_6" d="M17.4688 6.09375C16.8272 6.09371 16.2115 6.34661 15.7552 6.79759C15.2988 7.24858 15.0387 7.86129 15.0312 8.50281C15.0313 10.7453 17.2088 11.7528 17.3022 11.8016L17.4688 11.8787L17.6353 11.8016C17.7287 11.7609 19.9062 10.7453 19.9062 8.50281C19.8988 7.86129 19.6387 7.24858 19.1823 6.79759C18.726 6.34661 18.1103 6.09371 17.4688 6.09375ZM17.4688 10.9688C17.0178 10.7128 15.8438 9.9125 15.8438 8.49469C15.8438 8.06371 16.015 7.65039 16.3197 7.34564C16.6244 7.04089 17.0378 6.86969 17.4688 6.86969C17.8997 6.86969 18.3131 7.04089 18.6178 7.34564C18.9225 7.65039 19.0938 8.06371 19.0938 8.49469C19.0938 9.92062 17.9156 10.7209 17.4688 10.9688Z" fill="#1B163F"/>
<path id="Vector_7" d="M17.4688 9.30713C17.3066 9.30696 17.1481 9.25825 17.0138 9.16724C16.8795 9.07624 16.7755 8.94713 16.7153 8.79652C16.655 8.64591 16.6412 8.48071 16.6756 8.32219C16.71 8.16366 16.7911 8.01907 16.9085 7.90704C17.0258 7.795 17.1739 7.72064 17.3339 7.69355C17.4938 7.66645 17.6582 7.68785 17.8059 7.75498C17.9536 7.82212 18.0778 7.93193 18.1625 8.07027C18.2472 8.2086 18.2886 8.36914 18.2813 8.53119C18.2719 8.74028 18.1821 8.93767 18.0308 9.08222C17.8794 9.22678 17.6781 9.30734 17.4688 9.30713Z" fill="#1B163F"/>
<path id="Vector_8" d="M18.0781 17.4688H8.125C7.58628 17.4687 7.06962 17.2547 6.68869 16.8738C6.30776 16.4929 6.09375 15.9762 6.09375 15.4375C6.09375 14.8988 6.30776 14.3821 6.68869 14.0012C7.06962 13.6203 7.58628 13.4063 8.125 13.4062H9.34375C9.77473 13.4062 10.1881 13.235 10.4928 12.9303C10.7975 12.6256 10.9688 12.2122 10.9688 11.7812C10.9688 11.3503 10.7975 10.9369 10.4928 10.6322C10.1881 10.3275 9.77473 10.1562 9.34375 10.1562H5.28125C5.17351 10.1562 5.07017 10.1134 4.99399 10.0373C4.9178 9.96108 4.875 9.85774 4.875 9.75C4.875 9.64226 4.9178 9.53892 4.99399 9.46274C5.07017 9.38655 5.17351 9.34375 5.28125 9.34375H9.34375C9.99022 9.34375 10.6102 9.60056 11.0673 10.0577C11.5244 10.5148 11.7812 11.1348 11.7812 11.7812C11.7812 12.4277 11.5244 13.0477 11.0673 13.5048C10.6102 13.9619 9.99022 14.2187 9.34375 14.2188H8.125C7.80177 14.2188 7.49177 14.3472 7.26321 14.5757C7.03465 14.8043 6.90625 15.1143 6.90625 15.4375C6.90625 15.7607 7.03465 16.0707 7.26321 16.2993C7.49177 16.5278 7.80177 16.6562 8.125 16.6562H18.0781C18.563 16.6562 19.028 16.4636 19.3708 16.1208C19.7136 15.778 19.9062 15.313 19.9062 14.8281C19.9062 14.3433 19.7136 13.8783 19.3708 13.5354C19.028 13.1926 18.563 13 18.0781 13H17.0625C16.9548 13 16.8514 12.9572 16.7752 12.881C16.6991 12.8048 16.6562 12.7015 16.6562 12.5938C16.6562 12.486 16.6991 12.3827 16.7752 12.3065C16.8514 12.2303 16.9548 12.1875 17.0625 12.1875H18.0781C18.7785 12.1875 19.4501 12.4657 19.9453 12.9609C20.4405 13.4561 20.7188 14.1278 20.7188 14.8281C20.7188 15.5285 20.4405 16.2001 19.9453 16.6953C19.4501 17.1905 18.7785 17.4688 18.0781 17.4688Z" fill="#1B163F"/>
</g>
</g>
</g>
</svg>
