<svg width="113" height="152" viewBox="0 0 113 152" fill="none" xmlns="http://www.w3.org/2000/svg">
<path d="M13.134 143.173H8.448V147.925H6.578V143.173H1.914V141.479H6.578V136.705H8.448V141.479H13.134V143.173Z" fill="#E5E5E5"/>
<path d="M13.134 143.173H8.448V147.925H6.578V143.173H1.914V141.479H6.578V136.705H8.448V141.479H13.134V143.173Z" fill="#E5E5E5"/>
<path d="M42.134 16.9798H37.448V21.7318H35.578V16.9798H30.914V15.2858H35.578V10.5118H37.448V15.2858H42.134V16.9798Z" fill="#E5E5E5"/>
<path d="M42.134 16.9798H37.448V21.7318H35.578V16.9798H30.914V15.2858H35.578V10.5118H37.448V15.2858H42.134V16.9798Z" fill="#E5E5E5"/>
<path d="M42.134 48.4061H37.448V53.1581H35.578V48.4061H30.914V46.7121H35.578V41.9381H37.448V46.7121H42.134V48.4061Z" fill="#E5E5E5"/>
<path d="M42.134 48.4061H37.448V53.1581H35.578V48.4061H30.914V46.7121H35.578V41.9381H37.448V46.7121H42.134V48.4061Z" fill="#E5E5E5"/>
<path d="M42.134 79.8319H37.448V84.5839H35.578V79.8319H30.914V78.1379H35.578V73.3639H37.448V78.1379H42.134V79.8319Z" fill="#6246E5"/>
<path d="M42.134 79.8319H37.448V84.5839H35.578V79.8319H30.914V78.1379H35.578V73.3639H37.448V78.1379H42.134V79.8319Z" fill="#6246E5"/>
<path d="M42.134 111.258H37.448V116.01H35.578V111.258H30.914V109.564H35.578V104.79H37.448V109.564H42.134V111.258Z" fill="#E5E5E5"/>
<path d="M42.134 111.258H37.448V116.01H35.578V111.258H30.914V109.564H35.578V104.79H37.448V109.564H42.134V111.258Z" fill="#E5E5E5"/>
<path d="M42.134 142.684H37.448V147.436H35.578V142.684H30.914V140.99H35.578V136.216H37.448V140.99H42.134V142.684Z" fill="#E5E5E5"/>
<path d="M77.134 18.9798H72.448V23.7318H70.578V18.9798H65.914V17.2858H70.578V12.5118H72.448V17.2858H77.134V18.9798Z" fill="#E5E5E5"/>
<path d="M77.134 50.4061H72.448V55.1581H70.578V50.4061H65.914V48.7121H70.578V43.9381H72.448V48.7121H77.134V50.4061Z" fill="#E5E5E5"/>
<path d="M77.134 81.8319H72.448V86.5839H70.578V81.8319H65.914V80.1379H70.578V75.3639H72.448V80.1379H77.134V81.8319Z" fill="#E5E5E5"/>
<path d="M77.134 113.258H72.448V118.01H70.578V113.258H65.914V111.564H70.578V106.79H72.448V111.564H77.134V113.258Z" fill="#E5E5E5"/>
<path d="M77.134 144.684H72.448V149.436H70.578V144.684H65.914V142.99H70.578V138.216H72.448V142.99H77.134V144.684Z" fill="#E5E5E5"/>
<path d="M112.134 18.9798H107.448V23.7318H105.578V18.9798H100.914V17.2858H105.578V12.5118H107.448V17.2858H112.134V18.9798Z" fill="#FF7152"/>
<path d="M112.134 50.4061H107.448V55.1581H105.578V50.4061H100.914V48.7121H105.578V43.9381H107.448V48.7121H112.134V50.4061Z" fill="#E5E5E5"/>
<path d="M112.134 81.8319H107.448V86.5839H105.578V81.8319H100.914V80.1379H105.578V75.3639H107.448V80.1379H112.134V81.8319Z" fill="#E5E5E5"/>
<path d="M112.134 113.258H107.448V118.01H105.578V113.258H100.914V111.564H105.578V106.79H107.448V111.564H112.134V113.258Z" fill="#E5E5E5"/>
<path d="M112.134 144.684H107.448V149.436H105.578V144.684H100.914V142.99H105.578V138.216H107.448V142.99H112.134V144.684Z" fill="#E5E5E5"/>
</svg>
