<svg width="31" height="27" viewBox="0 0 31 27" fill="red" xmlns="http://www.w3.org/2000/svg">
<g filter="url(#filter0_b_46_3114)">
<path d="M3 14C1.19209e-07 9.99998 1 3.99998 6 1.99998C11 -1.9908e-05 14 3.99998 15 5.99998C16 3.99998 20 -1.9908e-05 25 1.99998C30 3.99998 30 9.99998 27 14C24 18 15 26 15 26C15 26 6 18 3 14Z" fill="black" fill-opacity="0.2"/>
<path d="M3 14C1.19209e-07 9.99998 1 3.99998 6 1.99998C11 -1.9908e-05 14 3.99998 15 5.99998C16 3.99998 20 -1.9908e-05 25 1.99998C30 3.99998 30 9.99998 27 14C24 18 15 26 15 26C15 26 6 18 3 14Z" stroke="white" stroke-width="2" stroke-linecap="round" stroke-linejoin="round"/>
</g>
<defs>
<filter id="filter0_b_46_3114" x="-0.682953" y="-0.54541" width="31.7304" height="28.5454" filterUnits="userSpaceOnUse" color-interpolation-filters="sRGB">
<feFlood flood-opacity="0" result="BackgroundImageFix"/>
<feGaussianBlur in="BackgroundImageFix" stdDeviation="0.5"/>
<feComposite in2="SourceAlpha" operator="in" result="effect1_backgroundBlur_46_3114"/>
<feBlend mode="normal" in="SourceGraphic" in2="effect1_backgroundBlur_46_3114" result="shape"/>
</filter>
</defs>
</svg>