<svg width="342" height="40" viewBox="0 0 342 40" fill="none" xmlns="http://www.w3.org/2000/svg">
<path d="M1 20H341" stroke="#D0D0D0" stroke-linecap="round"/>
<rect width="140" height="40" transform="translate(101)" fill="white"/>
<path d="M125.924 25.126C125.205 25.126 124.552 24.9627 123.964 24.636C123.385 24.3093 122.928 23.8473 122.592 23.25C122.265 22.6433 122.102 21.9433 122.102 21.15C122.102 20.366 122.27 19.6753 122.606 19.078C122.951 18.4713 123.418 18.0093 124.006 17.692C124.594 17.3653 125.252 17.202 125.98 17.202C126.708 17.202 127.366 17.3653 127.954 17.692C128.542 18.0093 129.004 18.4667 129.34 19.064C129.685 19.6613 129.858 20.3567 129.858 21.15C129.858 21.9433 129.681 22.6433 129.326 23.25C128.981 23.8473 128.509 24.3093 127.912 24.636C127.315 24.9627 126.652 25.126 125.924 25.126ZM125.924 24.006C126.381 24.006 126.811 23.8987 127.212 23.684C127.613 23.4693 127.935 23.1473 128.178 22.718C128.43 22.2887 128.556 21.766 128.556 21.15C128.556 20.534 128.435 20.0113 128.192 19.582C127.949 19.1527 127.632 18.8353 127.24 18.63C126.848 18.4153 126.423 18.308 125.966 18.308C125.499 18.308 125.07 18.4153 124.678 18.63C124.295 18.8353 123.987 19.1527 123.754 19.582C123.521 20.0113 123.404 20.534 123.404 21.15C123.404 21.7753 123.516 22.3027 123.74 22.732C123.973 23.1613 124.281 23.4833 124.664 23.698C125.047 23.9033 125.467 24.006 125.924 24.006ZM132.982 18.574C133.206 18.1353 133.523 17.7947 133.934 17.552C134.354 17.3093 134.863 17.188 135.46 17.188V18.504H135.124C133.696 18.504 132.982 19.2787 132.982 20.828V25H131.708V17.328H132.982V18.574ZM143.729 25.126C143.141 25.126 142.614 25.028 142.147 24.832C141.68 24.6267 141.312 24.3467 141.041 23.992C140.77 23.628 140.621 23.2127 140.593 22.746H141.909C141.946 23.1287 142.124 23.4413 142.441 23.684C142.768 23.9267 143.192 24.048 143.715 24.048C144.2 24.048 144.583 23.9407 144.863 23.726C145.143 23.5113 145.283 23.2407 145.283 22.914C145.283 22.578 145.134 22.3307 144.835 22.172C144.536 22.004 144.074 21.8407 143.449 21.682C142.88 21.5327 142.413 21.3833 142.049 21.234C141.694 21.0753 141.386 20.8467 141.125 20.548C140.873 20.24 140.747 19.8387 140.747 19.344C140.747 18.952 140.864 18.5927 141.097 18.266C141.33 17.9393 141.662 17.6827 142.091 17.496C142.52 17.3 143.01 17.202 143.561 17.202C144.41 17.202 145.096 17.4167 145.619 17.846C146.142 18.2753 146.422 18.8633 146.459 19.61H145.185C145.157 19.2087 144.994 18.8867 144.695 18.644C144.406 18.4013 144.014 18.28 143.519 18.28C143.062 18.28 142.698 18.378 142.427 18.574C142.156 18.77 142.021 19.0267 142.021 19.344C142.021 19.596 142.1 19.806 142.259 19.974C142.427 20.1327 142.632 20.2633 142.875 20.366C143.127 20.4593 143.472 20.5667 143.911 20.688C144.462 20.8373 144.91 20.9867 145.255 21.136C145.6 21.276 145.894 21.4907 146.137 21.78C146.389 22.0693 146.52 22.4473 146.529 22.914C146.529 23.334 146.412 23.712 146.179 24.048C145.946 24.384 145.614 24.65 145.185 24.846C144.765 25.0327 144.28 25.126 143.729 25.126ZM149.161 16.082C148.918 16.082 148.713 15.998 148.545 15.83C148.377 15.662 148.293 15.4567 148.293 15.214C148.293 14.9713 148.377 14.766 148.545 14.598C148.713 14.43 148.918 14.346 149.161 14.346C149.394 14.346 149.59 14.43 149.749 14.598C149.917 14.766 150.001 14.9713 150.001 15.214C150.001 15.4567 149.917 15.662 149.749 15.83C149.59 15.998 149.394 16.082 149.161 16.082ZM149.777 17.328V25H148.503V17.328H149.777ZM155.287 17.202C155.95 17.202 156.528 17.3467 157.023 17.636C157.527 17.9253 157.9 18.2893 158.143 18.728V17.328H159.431V25.168C159.431 25.868 159.282 26.4887 158.983 27.03C158.684 27.5807 158.255 28.01 157.695 28.318C157.144 28.626 156.5 28.78 155.763 28.78C154.755 28.78 153.915 28.542 153.243 28.066C152.571 27.59 152.174 26.9413 152.053 26.12H153.313C153.453 26.5867 153.742 26.96 154.181 27.24C154.62 27.5293 155.147 27.674 155.763 27.674C156.463 27.674 157.032 27.4547 157.471 27.016C157.919 26.5773 158.143 25.9613 158.143 25.168V23.558C157.891 24.006 157.518 24.3793 157.023 24.678C156.528 24.9767 155.95 25.126 155.287 25.126C154.606 25.126 153.985 24.958 153.425 24.622C152.874 24.286 152.44 23.8147 152.123 23.208C151.806 22.6013 151.647 21.9107 151.647 21.136C151.647 20.352 151.806 19.666 152.123 19.078C152.44 18.4807 152.874 18.0187 153.425 17.692C153.985 17.3653 154.606 17.202 155.287 17.202ZM158.143 21.15C158.143 20.5713 158.026 20.0673 157.793 19.638C157.56 19.2087 157.242 18.882 156.841 18.658C156.449 18.4247 156.015 18.308 155.539 18.308C155.063 18.308 154.629 18.42 154.237 18.644C153.845 18.868 153.532 19.1947 153.299 19.624C153.066 20.0533 152.949 20.5573 152.949 21.136C152.949 21.724 153.066 22.2373 153.299 22.676C153.532 23.1053 153.845 23.4367 154.237 23.67C154.629 23.894 155.063 24.006 155.539 24.006C156.015 24.006 156.449 23.894 156.841 23.67C157.242 23.4367 157.56 23.1053 157.793 22.676C158.026 22.2373 158.143 21.7287 158.143 21.15ZM165.497 17.188C166.43 17.188 167.186 17.4727 167.765 18.042C168.344 18.602 168.633 19.414 168.633 20.478V25H167.373V20.66C167.373 19.8947 167.182 19.3113 166.799 18.91C166.416 18.4993 165.894 18.294 165.231 18.294C164.559 18.294 164.022 18.504 163.621 18.924C163.229 19.344 163.033 19.9553 163.033 20.758V25H161.759V17.328H163.033V18.42C163.285 18.028 163.626 17.7247 164.055 17.51C164.494 17.2953 164.974 17.188 165.497 17.188ZM175.454 16.082C175.212 16.082 175.006 15.998 174.838 15.83C174.67 15.662 174.586 15.4567 174.586 15.214C174.586 14.9713 174.67 14.766 174.838 14.598C175.006 14.43 175.212 14.346 175.454 14.346C175.688 14.346 175.884 14.43 176.042 14.598C176.21 14.766 176.294 14.9713 176.294 15.214C176.294 15.4567 176.21 15.662 176.042 15.83C175.884 15.998 175.688 16.082 175.454 16.082ZM176.07 17.328V25H174.796V17.328H176.07ZM182.155 17.188C183.088 17.188 183.844 17.4727 184.423 18.042C185.001 18.602 185.291 19.414 185.291 20.478V25H184.031V20.66C184.031 19.8947 183.839 19.3113 183.457 18.91C183.074 18.4993 182.551 18.294 181.889 18.294C181.217 18.294 180.68 18.504 180.279 18.924C179.887 19.344 179.691 19.9553 179.691 20.758V25H178.417V17.328H179.691V18.42C179.943 18.028 180.283 17.7247 180.713 17.51C181.151 17.2953 181.632 17.188 182.155 17.188ZM201.674 17.328L199.28 25H197.964L196.116 18.91L194.268 25H192.952L190.544 17.328H191.846L193.61 23.768L195.514 17.328H196.816L198.678 23.782L200.414 17.328H201.674ZM203.772 16.082C203.529 16.082 203.324 15.998 203.156 15.83C202.988 15.662 202.904 15.4567 202.904 15.214C202.904 14.9713 202.988 14.766 203.156 14.598C203.324 14.43 203.529 14.346 203.772 14.346C204.005 14.346 204.201 14.43 204.36 14.598C204.528 14.766 204.612 14.9713 204.612 15.214C204.612 15.4567 204.528 15.662 204.36 15.83C204.201 15.998 204.005 16.082 203.772 16.082ZM204.388 17.328V25H203.114V17.328H204.388ZM208.288 18.378V22.9C208.288 23.2733 208.367 23.5393 208.526 23.698C208.685 23.8473 208.96 23.922 209.352 23.922H210.29V25H209.142C208.433 25 207.901 24.8367 207.546 24.51C207.191 24.1833 207.014 23.6467 207.014 22.9V18.378H206.02V17.328H207.014V15.396H208.288V17.328H210.29V18.378H208.288ZM215.816 17.188C216.395 17.188 216.918 17.314 217.384 17.566C217.851 17.8087 218.215 18.1773 218.476 18.672C218.747 19.1667 218.882 19.7687 218.882 20.478V25H217.622V20.66C217.622 19.8947 217.431 19.3113 217.048 18.91C216.666 18.4993 216.143 18.294 215.48 18.294C214.808 18.294 214.272 18.504 213.87 18.924C213.478 19.344 213.282 19.9553 213.282 20.758V25H212.008V14.64H213.282V18.42C213.534 18.028 213.88 17.7247 214.318 17.51C214.766 17.2953 215.266 17.188 215.816 17.188Z" fill="#D0D0D0"/>
</svg>
