<svg width="230" height="28" viewBox="0 0 230 28" fill="none" xmlns="http://www.w3.org/2000/svg">
<path d="M20.412 1.728V6.66H13.716V27H7.56V6.66H0.864V1.728H20.412ZM29.6575 10.26C30.3775 9.156 31.2775 8.292 32.3575 7.668C33.4375 7.02 34.6375 6.696 35.9575 6.696V13.212H34.2655C32.7295 13.212 31.5775 13.548 30.8095 14.22C30.0415 14.868 29.6575 16.02 29.6575 17.676V27H23.5015V6.912H29.6575V10.26ZM37.676 16.92C37.676 14.856 38.06 13.044 38.828 11.484C39.62 9.924 40.688 8.724 42.032 7.884C43.376 7.044 44.876 6.624 46.532 6.624C47.948 6.624 49.184 6.912 50.24 7.488C51.32 8.064 52.148 8.82 52.724 9.756V6.912H58.88V27H52.724V24.156C52.124 25.092 51.284 25.848 50.204 26.424C49.148 27 47.912 27.288 46.496 27.288C44.864 27.288 43.376 26.868 42.032 26.028C40.688 25.164 39.62 23.952 38.828 22.392C38.06 20.808 37.676 18.984 37.676 16.92ZM52.724 16.956C52.724 15.42 52.292 14.208 51.428 13.32C50.588 12.432 49.556 11.988 48.332 11.988C47.108 11.988 46.064 12.432 45.2 13.32C44.36 14.184 43.94 15.384 43.94 16.92C43.94 18.456 44.36 19.68 45.2 20.592C46.064 21.48 47.108 21.924 48.332 21.924C49.556 21.924 50.588 21.48 51.428 20.592C52.292 19.704 52.724 18.492 52.724 16.956ZM72.3696 21.24L76.7256 6.912H83.2776L76.1496 27H68.5536L61.4256 6.912H68.0136L72.3696 21.24ZM104.805 16.632C104.805 17.208 104.769 17.808 104.697 18.432H90.7647C90.8607 19.68 91.2567 20.64 91.9527 21.312C92.6727 21.96 93.5487 22.284 94.5807 22.284C96.1167 22.284 97.1847 21.636 97.7847 20.34H104.337C104.001 21.66 103.389 22.848 102.501 23.904C101.637 24.96 100.545 25.788 99.2247 26.388C97.9047 26.988 96.4287 27.288 94.7967 27.288C92.8287 27.288 91.0767 26.868 89.5407 26.028C88.0047 25.188 86.8047 23.988 85.9407 22.428C85.0767 20.868 84.6447 19.044 84.6447 16.956C84.6447 14.868 85.0647 13.044 85.9047 11.484C86.7687 9.924 87.9687 8.724 89.5047 7.884C91.0407 7.044 92.8047 6.624 94.7967 6.624C96.7407 6.624 98.4687 7.032 99.9807 7.848C101.493 8.664 102.669 9.828 103.509 11.34C104.373 12.852 104.805 14.616 104.805 16.632ZM98.5047 15.012C98.5047 13.956 98.1447 13.116 97.4247 12.492C96.7047 11.868 95.8047 11.556 94.7247 11.556C93.6927 11.556 92.8167 11.856 92.0967 12.456C91.4007 13.056 90.9687 13.908 90.8007 15.012H98.5047ZM114.208 0.36V27H108.052V0.36H114.208ZM139.186 27L133.93 17.46H132.454V27H126.298V1.728H136.63C138.622 1.728 140.314 2.076 141.706 2.772C143.122 3.468 144.178 4.428 144.874 5.652C145.57 6.852 145.918 8.196 145.918 9.684C145.918 11.364 145.438 12.864 144.478 14.184C143.542 15.504 142.15 16.44 140.302 16.992L146.134 27H139.186ZM132.454 13.104H136.27C137.398 13.104 138.238 12.828 138.79 12.276C139.366 11.724 139.654 10.944 139.654 9.936C139.654 8.976 139.366 8.22 138.79 7.668C138.238 7.116 137.398 6.84 136.27 6.84H132.454V13.104ZM158.927 27.288C156.959 27.288 155.183 26.868 153.599 26.028C152.039 25.188 150.803 23.988 149.891 22.428C149.003 20.868 148.559 19.044 148.559 16.956C148.559 14.892 149.015 13.08 149.927 11.52C150.839 9.936 152.087 8.724 153.671 7.884C155.255 7.044 157.031 6.624 158.999 6.624C160.967 6.624 162.743 7.044 164.327 7.884C165.911 8.724 167.159 9.936 168.071 11.52C168.983 13.08 169.439 14.892 169.439 16.956C169.439 19.02 168.971 20.844 168.035 22.428C167.123 23.988 165.863 25.188 164.255 26.028C162.671 26.868 160.895 27.288 158.927 27.288ZM158.927 21.96C160.103 21.96 161.099 21.528 161.915 20.664C162.755 19.8 163.175 18.564 163.175 16.956C163.175 15.348 162.767 14.112 161.951 13.248C161.159 12.384 160.175 11.952 158.999 11.952C157.799 11.952 156.803 12.384 156.011 13.248C155.219 14.088 154.823 15.324 154.823 16.956C154.823 18.564 155.207 19.8 155.975 20.664C156.767 21.528 157.751 21.96 158.927 21.96ZM181.741 21.24L186.097 6.912H192.649L185.521 27H177.925L170.797 6.912H177.385L181.741 21.24ZM214.176 16.632C214.176 17.208 214.14 17.808 214.068 18.432H200.136C200.232 19.68 200.628 20.64 201.324 21.312C202.044 21.96 202.92 22.284 203.952 22.284C205.488 22.284 206.556 21.636 207.156 20.34H213.708C213.372 21.66 212.76 22.848 211.872 23.904C211.008 24.96 209.916 25.788 208.596 26.388C207.276 26.988 205.8 27.288 204.168 27.288C202.2 27.288 200.448 26.868 198.912 26.028C197.376 25.188 196.176 23.988 195.312 22.428C194.448 20.868 194.016 19.044 194.016 16.956C194.016 14.868 194.436 13.044 195.276 11.484C196.14 9.924 197.34 8.724 198.876 7.884C200.412 7.044 202.176 6.624 204.168 6.624C206.112 6.624 207.84 7.032 209.352 7.848C210.864 8.664 212.04 9.828 212.88 11.34C213.744 12.852 214.176 14.616 214.176 16.632ZM207.876 15.012C207.876 13.956 207.516 13.116 206.796 12.492C206.076 11.868 205.176 11.556 204.096 11.556C203.064 11.556 202.188 11.856 201.468 12.456C200.772 13.056 200.34 13.908 200.172 15.012H207.876ZM223.579 10.26C224.299 9.156 225.199 8.292 226.279 7.668C227.359 7.02 228.559 6.696 229.879 6.696V13.212H228.187C226.651 13.212 225.499 13.548 224.731 14.22C223.963 14.868 223.579 16.02 223.579 17.676V27H217.423V6.912H223.579V10.26Z" fill="#003FA3"/>
</svg>
