<svg width="1021" height="592" viewBox="0 0 1021 592" fill="none" xmlns="http://www.w3.org/2000/svg">
<path d="M354.901 6.07886C353.151 6.07886 351.504 6.76135 350.266 7.99836L340.928 17.3285L319.348 12.5369C318.614 12.372 317.857 12.5909 317.328 13.1227L315.973 14.4763C315.655 14.7948 315.501 15.2327 315.555 15.6792C315.609 16.1256 315.86 16.5152 316.244 16.7484L332.012 26.3601L325.929 33.7225L319.376 32.1215C318.639 31.9423 317.848 32.1613 317.311 32.6959L316.514 33.495C316.19 33.822 316.039 34.2685 316.104 34.7263C316.167 35.1841 316.434 35.5737 316.838 35.7984L325.084 40.3739L329.661 48.6149C329.886 49.0187 330.276 49.286 330.734 49.3486C331.186 49.4112 331.639 49.2633 331.966 48.9391L332.765 48.14C333.3 47.6054 333.519 46.8149 333.34 46.0755L331.738 39.5293L339.104 33.4466L348.721 49.2093C348.954 49.5903 349.344 49.8434 349.791 49.8946C349.851 49.9031 349.907 49.906 349.964 49.906C350.348 49.906 350.715 49.7581 350.994 49.4823L352.349 48.1287C352.878 47.5969 353.1 46.8433 352.935 46.1096L348.141 24.5373L357.476 15.2043C358.713 13.9673 359.396 12.3236 359.396 10.5719V8.26282C359.396 7.05993 358.414 6.07886 357.211 6.07886H354.901ZM354.901 7.53483H357.211C357.612 7.53483 357.939 7.86186 357.939 8.26282V10.5719C357.939 11.934 357.407 13.2137 356.446 14.1749L346.829 23.7894C346.653 23.9629 346.579 24.2188 346.63 24.4605L351.515 46.4253C351.569 46.6698 351.495 46.9201 351.319 47.0964L349.964 48.45L340.208 32.4627L342.379 30.2958C342.664 30.0086 342.664 29.5508 342.379 29.2635C342.095 28.9792 341.634 28.9792 341.349 29.2635L338.797 31.8143L330.458 38.6989C330.242 38.8753 330.148 39.1625 330.216 39.4326L331.926 46.4253C331.986 46.6698 331.912 46.9343 331.733 47.1106L330.936 47.9097L326.52 39.9672L330.048 36.441C330.333 36.1567 330.333 35.696 330.048 35.4116C329.764 35.1273 329.306 35.1273 329.021 35.4116L325.493 38.9378L317.544 34.5244L318.343 33.7282C318.523 33.549 318.782 33.4751 319.029 33.5376L326.028 35.2438C326.296 35.3121 326.583 35.2183 326.759 35.0021L333.65 26.6672L335.79 24.5288C336.074 24.2416 336.074 23.7837 335.79 23.4965C335.505 23.2122 335.044 23.2122 334.76 23.4965L332.999 25.2568L317.003 15.5057L318.358 14.1521C318.534 13.9758 318.784 13.9019 319.029 13.9559L341.005 18.8385C341.247 18.8926 341.503 18.8186 341.676 18.6423L351.296 9.02777C352.26 8.0666 353.538 7.53483 354.901 7.53483ZM344.365 19.3447C344.18 19.3447 343.992 19.4158 343.85 19.558C343.566 19.8424 343.566 20.303 343.85 20.5874L344.88 21.6168C345.022 21.759 345.207 21.8301 345.395 21.8301C345.583 21.8301 345.768 21.759 345.91 21.6168C346.195 21.3325 346.195 20.8718 345.91 20.5874L344.88 19.558C344.738 19.4158 344.55 19.3447 344.365 19.3447ZM341.79 21.9154C341.605 21.9154 341.418 21.9894 341.275 22.1315C340.991 22.4159 340.991 22.8766 341.275 23.161L342.305 24.1904C342.447 24.3326 342.632 24.4037 342.82 24.4037C343.008 24.4037 343.193 24.3326 343.335 24.1904C343.62 23.906 343.62 23.4453 343.335 23.161L342.305 22.1315C342.163 21.9894 341.975 21.9154 341.79 21.9154ZM339.215 24.4918C339.028 24.4918 338.843 24.5629 338.7 24.7051C338.416 24.9895 338.416 25.4501 338.7 25.7345L339.73 26.7639C339.873 26.9061 340.058 26.9772 340.245 26.9772C340.433 26.9772 340.618 26.9061 340.76 26.7639C341.045 26.4796 341.045 26.0189 340.76 25.7345L339.73 24.7051C339.588 24.5629 339.403 24.4918 339.215 24.4918ZM336.641 27.0654C336.456 27.0654 336.268 27.1365 336.126 27.2786C335.841 27.563 335.841 28.0237 336.126 28.3081L337.156 29.3375C337.298 29.4797 337.483 29.5508 337.67 29.5508C337.858 29.5508 338.043 29.4797 338.185 29.3375C338.47 29.0531 338.47 28.5924 338.185 28.3081L337.156 27.2786C337.013 27.1365 336.825 27.0654 336.641 27.0654ZM332.811 31.9224C332.626 31.9224 332.438 31.9935 332.296 32.1357L331.203 33.2277C330.919 33.512 330.919 33.9727 331.203 34.2571C331.346 34.3993 331.531 34.4704 331.718 34.4704C331.906 34.4704 332.091 34.3993 332.233 34.2571L333.326 33.1651C333.61 32.8807 333.61 32.4201 333.326 32.1357C333.184 31.9935 332.996 31.9224 332.811 31.9224Z" fill="#23BDEE"/>
<path d="M1020.02 289.846C942.445 404.204 704.418 623.804 372.871 587.344C245.044 588.54 -8.27757 518.442 1.04538 228.48C-5.50982 134.338 68.4183 -54.2718 317.516 15.5428" stroke="#23BDEE" stroke-width="0.888722" stroke-linecap="square" stroke-dasharray="35.55 35.55"/>
</svg>
